# Blender 4.5.2 LTS
# www.blender.org
mtllib smooth_sphere.mtl
o Sphere
v 0.000000 0.951057 -0.309017
v 0.000000 0.587785 -0.809017
v 0.000000 0.309017 -0.951057
v 0.000000 0.000000 -1.000000
v 0.000000 -0.809017 -0.587785
v 0.000000 -0.951057 -0.309017
v 0.000000 1.000000 0.000000
v 0.134077 0.951057 -0.278415
v 0.255030 0.809017 -0.529576
v 0.351019 0.587785 -0.728899
v 0.412648 0.309017 -0.856872
v 0.433884 0.000000 -0.900969
v 0.412648 -0.309017 -0.856872
v 0.351019 -0.587785 -0.728899
v 0.255030 -0.809017 -0.529576
v 0.134077 -0.951057 -0.278415
v 0.241599 0.951057 -0.192669
v 0.459549 0.809017 -0.366478
v 0.632515 0.587785 -0.504414
v 0.743566 0.309017 -0.592974
v 0.781832 0.000000 -0.623490
v 0.743566 -0.309017 -0.592974
v 0.632515 -0.587785 -0.504414
v 0.459549 -0.809017 -0.366478
v 0.241599 -0.951057 -0.192669
v 0.301269 0.951057 -0.068763
v 0.573048 0.809017 -0.130794
v 0.788733 0.587785 -0.180023
v 0.927212 0.309017 -0.211630
v 0.974928 0.000000 -0.222521
v 0.927212 -0.309017 -0.211630
v 0.788733 -0.587785 -0.180023
v 0.573048 -0.809017 -0.130794
v 0.301269 -0.951057 -0.068763
v 0.301269 0.951057 0.068763
v 0.573048 0.809017 0.130795
v 0.788733 0.587785 0.180023
v 0.927212 0.309017 0.211630
v 0.974928 0.000000 0.222521
v 0.927212 -0.309017 0.211630
v 0.788733 -0.587785 0.180023
v 0.573048 -0.809017 0.130795
v 0.301269 -0.951057 0.068763
v 0.241599 0.951057 0.192669
v 0.459549 0.809017 0.366478
v 0.632515 0.587785 0.504414
v 0.743566 0.309017 0.592974
v 0.781831 0.000000 0.623490
v 0.743566 -0.309017 0.592974
v 0.632515 -0.587785 0.504414
v 0.459549 -0.809017 0.366478
v 0.241599 -0.951057 0.192669
v 0.134077 0.951057 0.278415
v 0.255030 0.809017 0.529576
v 0.351019 0.587785 0.728899
v 0.412648 0.309017 0.856872
v 0.433884 0.000000 0.900969
v 0.412648 -0.309017 0.856872
v 0.351019 -0.587785 0.728899
v 0.255030 -0.809017 0.529576
v 0.134077 -0.951057 0.278415
v -0.000000 0.951057 0.309017
v -0.000000 0.809017 0.587785
v -0.000000 0.587785 0.809017
v -0.000000 0.309017 0.951057
v -0.000000 0.000000 1.000000
v -0.000000 -0.309017 0.951057
v -0.000000 -0.587785 0.809017
v -0.000000 -0.809017 0.587785
v -0.000000 -0.951057 0.309017
v -0.134077 0.951057 0.278415
v -0.255031 0.809017 0.529576
v -0.351019 0.587785 0.728899
v -0.412648 0.309017 0.856872
v -0.433884 0.000000 0.900969
v -0.412648 -0.309017 0.856872
v -0.351019 -0.587785 0.728899
v -0.255031 -0.809017 0.529576
v -0.134077 -0.951057 0.278415
v -0.241599 0.951057 0.192669
v -0.459549 0.809017 0.366478
v -0.632515 0.587785 0.504414
v -0.743566 0.309017 0.592974
v -0.781832 0.000000 0.623490
v -0.743566 -0.309017 0.592974
v -0.632515 -0.587785 0.504414
v -0.459549 -0.809017 0.366478
v -0.241599 -0.951057 0.192669
v 0.000000 -1.000000 0.000000
v -0.301269 0.951057 0.068763
v -0.573048 0.809017 0.130794
v -0.788733 0.587785 0.180023
v -0.927212 0.309017 0.211630
v -0.974928 0.000000 0.222521
v -0.927212 -0.309017 0.211630
v -0.788733 -0.587785 0.180023
v -0.573048 -0.809017 0.130794
v -0.301269 -0.951057 0.068763
v -0.301269 0.951057 -0.068763
v -0.573048 0.809017 -0.130795
v -0.788733 0.587785 -0.180023
v -0.927212 0.309017 -0.211630
v -0.974928 0.000000 -0.222521
v -0.927212 -0.309017 -0.211630
v -0.788733 -0.587785 -0.180023
v -0.573048 -0.809017 -0.130795
v -0.301269 -0.951057 -0.068763
v -0.241599 0.951057 -0.192669
v -0.459549 0.809017 -0.366478
v -0.632515 0.587785 -0.504414
v -0.743566 0.309017 -0.592974
v -0.781831 0.000000 -0.623490
v -0.743566 -0.309017 -0.592974
v -0.632515 -0.587785 -0.504414
v -0.459549 -0.809017 -0.366478
v -0.241599 -0.951057 -0.192669
v -0.134077 0.951057 -0.278415
v -0.255030 0.809017 -0.529576
v -0.351019 0.587785 -0.728899
v -0.412648 0.309017 -0.856872
v -0.433883 0.000000 -0.900969
v -0.412648 -0.309017 -0.856872
v -0.351019 -0.587785 -0.728899
v -0.255030 -0.809017 -0.529576
v -0.134077 -0.951057 -0.278415
v 0.000000 0.809017 -0.587785
v 0.000000 -0.309017 -0.951057
v 0.000000 -0.587785 -0.809017
vn -0.0000 0.9444 -0.3289
vn -0.0000 0.5774 -0.8164
vn -0.0000 0.3027 -0.9531
vn -0.0000 -0.0000 -1.0000
vn -0.0000 -0.7985 -0.6020
vn -0.0000 -0.9444 -0.3289
vn -0.0000 1.0000 -0.0000
vn 0.1427 0.9444 -0.2964
vn 0.2612 0.7985 -0.5424
vn 0.3542 0.5774 -0.7356
vn 0.4135 0.3027 -0.8587
vn 0.4339 -0.0000 -0.9010
vn 0.4135 -0.3027 -0.8587
vn 0.3542 -0.5774 -0.7356
vn 0.2612 -0.7985 -0.5424
vn 0.1427 -0.9444 -0.2964
vn 0.2572 0.9444 -0.2051
vn 0.4707 0.7985 -0.3753
vn 0.6383 0.5774 -0.5090
vn 0.7452 0.3027 -0.5942
vn 0.7818 -0.0000 -0.6235
vn 0.7452 -0.3027 -0.5942
vn 0.6383 -0.5774 -0.5090
vn 0.4707 -0.7985 -0.3753
vn 0.2572 -0.9444 -0.2051
vn 0.3207 0.9444 -0.0732
vn 0.5869 0.7985 -0.1340
vn 0.7960 0.5774 -0.1817
vn 0.9292 0.3027 -0.2121
vn 0.9749 -0.0000 -0.2225
vn 0.9292 -0.3027 -0.2121
vn 0.7960 -0.5774 -0.1817
vn 0.5869 -0.7985 -0.1340
vn 0.3207 -0.9444 -0.0732
vn 0.3207 0.9444 0.0732
vn 0.5869 0.7985 0.1340
vn 0.7960 0.5774 0.1817
vn 0.9292 0.3027 0.2121
vn 0.9749 -0.0000 0.2225
vn 0.9292 -0.3027 0.2121
vn 0.7960 -0.5774 0.1817
vn 0.5869 -0.7985 0.1340
vn 0.3207 -0.9444 0.0732
vn 0.2572 0.9444 0.2051
vn 0.4707 0.7985 0.3753
vn 0.6383 0.5774 0.5090
vn 0.7452 0.3027 0.5942
vn 0.7818 -0.0000 0.6235
vn 0.7452 -0.3027 0.5942
vn 0.6383 -0.5774 0.5090
vn 0.4707 -0.7985 0.3753
vn 0.2572 -0.9444 0.2051
vn 0.1427 0.9444 0.2964
vn 0.2612 0.7985 0.5424
vn 0.3542 0.5774 0.7356
vn 0.4135 0.3027 0.8587
vn 0.4339 -0.0000 0.9010
vn 0.4135 -0.3027 0.8587
vn 0.3542 -0.5774 0.7356
vn 0.2612 -0.7985 0.5424
vn 0.1427 -0.9444 0.2964
vn -0.0000 0.9444 0.3289
vn -0.0000 0.7985 0.6020
vn -0.0000 0.5774 0.8164
vn -0.0000 0.3027 0.9531
vn -0.0000 -0.0000 1.0000
vn -0.0000 -0.3027 0.9531
vn -0.0000 -0.5774 0.8164
vn -0.0000 -0.7985 0.6020
vn -0.0000 -0.9444 0.3289
vn -0.1427 0.9444 0.2964
vn -0.2612 0.7985 0.5424
vn -0.3542 0.5774 0.7356
vn -0.4135 0.3027 0.8587
vn -0.4339 -0.0000 0.9010
vn -0.4135 -0.3027 0.8587
vn -0.3542 -0.5774 0.7356
vn -0.2612 -0.7985 0.5424
vn -0.1427 -0.9444 0.2964
vn -0.2572 0.9444 0.2051
vn -0.4707 0.7985 0.3753
vn -0.6383 0.5774 0.5090
vn -0.7452 0.3027 0.5942
vn -0.7818 -0.0000 0.6235
vn -0.7452 -0.3027 0.5942
vn -0.6383 -0.5774 0.5090
vn -0.4707 -0.7985 0.3753
vn -0.2572 -0.9444 0.2051
vn -0.0000 -1.0000 -0.0000
vn -0.3207 0.9444 0.0732
vn -0.5869 0.7985 0.1340
vn -0.7960 0.5774 0.1817
vn -0.9292 0.3027 0.2121
vn -0.9749 -0.0000 0.2225
vn -0.9292 -0.3027 0.2121
vn -0.7960 -0.5774 0.1817
vn -0.5869 -0.7985 0.1340
vn -0.3207 -0.9444 0.0732
vn -0.3207 0.9444 -0.0732
vn -0.5869 0.7985 -0.1340
vn -0.7960 0.5774 -0.1817
vn -0.9292 0.3027 -0.2121
vn -0.9749 -0.0000 -0.2225
vn -0.9292 -0.3027 -0.2121
vn -0.7960 -0.5774 -0.1817
vn -0.5869 -0.7985 -0.1340
vn -0.3207 -0.9444 -0.0732
vn -0.2572 0.9444 -0.2051
vn -0.4707 0.7985 -0.3753
vn -0.6383 0.5774 -0.5090
vn -0.7452 0.3027 -0.5942
vn -0.7818 -0.0000 -0.6235
vn -0.7452 -0.3027 -0.5942
vn -0.6383 -0.5774 -0.5090
vn -0.4707 -0.7985 -0.3753
vn -0.2572 -0.9444 -0.2051
vn -0.1427 0.9444 -0.2964
vn -0.2612 0.7985 -0.5424
vn -0.3542 0.5774 -0.7356
vn -0.4135 0.3027 -0.8587
vn -0.4339 -0.0000 -0.9010
vn -0.4135 -0.3027 -0.8587
vn -0.3542 -0.5774 -0.7356
vn -0.2612 -0.7985 -0.5424
vn -0.1427 -0.9444 -0.2964
vn -0.0000 0.7985 -0.6020
vn -0.0000 -0.3027 -0.9531
vn -0.0000 -0.5774 -0.8164
vt 0.714286 0.700000
vt 0.714286 0.800000
vt 0.642857 0.800000
vt 0.642857 0.700000
vt 0.678571 0.000000
vt 0.714286 0.100000
vt 0.642857 0.100000
vt 0.714286 0.300000
vt 0.714286 0.400000
vt 0.642857 0.400000
vt 0.642857 0.300000
vt 0.714286 0.600000
vt 0.642857 0.600000
vt 0.714286 0.900000
vt 0.678571 1.000000
vt 0.642857 0.900000
vt 0.714286 0.200000
vt 0.642857 0.200000
vt 0.714286 0.500000
vt 0.642857 0.500000
vt 0.607143 0.000000
vt 0.571429 0.100000
vt 0.571429 0.400000
vt 0.571429 0.300000
vt 0.571429 0.700000
vt 0.571429 0.600000
vt 0.607143 1.000000
vt 0.571429 0.900000
vt 0.571429 0.200000
vt 0.571429 0.500000
vt 0.571429 0.800000
vt 0.500000 0.500000
vt 0.500000 0.400000
vt 0.500000 0.800000
vt 0.500000 0.700000
vt 0.535714 0.000000
vt 0.500000 0.100000
vt 0.500000 0.300000
vt 0.500000 0.600000
vt 0.535714 1.000000
vt 0.500000 0.900000
vt 0.500000 0.200000
vt 0.428571 0.900000
vt 0.428571 0.800000
vt 0.428571 0.200000
vt 0.428571 0.100000
vt 0.428571 0.500000
vt 0.428571 0.400000
vt 0.428571 0.700000
vt 0.464286 0.000000
vt 0.428571 0.300000
vt 0.428571 0.600000
vt 0.464286 1.000000
vt 0.357143 0.600000
vt 0.357143 0.500000
vt 0.357143 0.900000
vt 0.357143 0.800000
vt 0.357143 0.200000
vt 0.357143 0.100000
vt 0.357143 0.400000
vt 0.357143 0.700000
vt 0.392857 0.000000
vt 0.357143 0.300000
vt 0.392857 1.000000
vt 0.321429 1.000000
vt 0.285714 0.900000
vt 0.285714 0.300000
vt 0.285714 0.200000
vt 0.285714 0.600000
vt 0.285714 0.500000
vt 0.285714 0.800000
vt 0.285714 0.100000
vt 0.285714 0.400000
vt 0.285714 0.700000
vt 0.321429 0.000000
vt 0.214286 0.400000
vt 0.214286 0.300000
vt 0.214286 0.700000
vt 0.214286 0.600000
vt 0.250000 1.000000
vt 0.214286 0.900000
vt 0.214286 0.200000
vt 0.214286 0.500000
vt 0.214286 0.800000
vt 0.214286 0.100000
vt 0.250000 0.000000
vt 0.142857 0.800000
vt 0.142857 0.700000
vt 0.178571 0.000000
vt 0.142857 0.100000
vt 0.142857 0.400000
vt 0.142857 0.300000
vt 0.142857 0.600000
vt 0.178571 1.000000
vt 0.142857 0.900000
vt 0.142857 0.200000
vt 0.142857 0.500000
vt 0.071429 0.500000
vt 0.071429 0.400000
vt 0.071429 0.800000
vt 0.071429 0.700000
vt 0.107143 0.000000
vt 0.071429 0.100000
vt 0.071429 0.300000
vt 0.071429 0.600000
vt 0.107143 1.000000
vt 0.071429 0.900000
vt 0.071429 0.200000
vt 0.000000 0.900000
vt 0.000000 0.800000
vt 0.000000 0.200000
vt 0.000000 0.100000
vt 0.000000 0.500000
vt 0.000000 0.400000
vt 0.000000 0.700000
vt 0.035714 0.000000
vt 0.000000 0.300000
vt 0.000000 0.600000
vt 0.035714 1.000000
vt 1.000000 0.200000
vt 1.000000 0.300000
vt 0.928571 0.300000
vt 0.928571 0.200000
vt 1.000000 0.500000
vt 1.000000 0.600000
vt 0.928571 0.600000
vt 0.928571 0.500000
vt 1.000000 0.800000
vt 1.000000 0.900000
vt 0.928571 0.900000
vt 0.928571 0.800000
vt 1.000000 0.100000
vt 0.928571 0.100000
vt 1.000000 0.400000
vt 0.928571 0.400000
vt 1.000000 0.700000
vt 0.928571 0.700000
vt 0.964286 0.000000
vt 0.964286 1.000000
vt 0.857143 0.700000
vt 0.857143 0.600000
vt 0.892857 1.000000
vt 0.857143 0.900000
vt 0.857143 0.300000
vt 0.857143 0.200000
vt 0.857143 0.500000
vt 0.857143 0.800000
vt 0.857143 0.100000
vt 0.857143 0.400000
vt 0.892857 0.000000
vt 0.785714 0.400000
vt 0.785714 0.300000
vt 0.785714 0.700000
vt 0.785714 0.600000
vt 0.821429 1.000000
vt 0.785714 0.900000
vt 0.785714 0.200000
vt 0.785714 0.500000
vt 0.785714 0.800000
vt 0.785714 0.100000
vt 0.821429 0.000000
vt 0.750000 0.000000
vt 0.750000 1.000000
s 1
f 2/1/2 126/2/126 9/3/9 10/4/10
f 89/5/89 6/6/6 16/7/16
f 128/8/128 127/9/127 13/10/13 14/11/14
f 3/12/3 2/1/2 10/4/10 11/13/11
f 1/14/1 7/15/7 8/16/8
f 5/17/5 128/8/128 14/11/14 15/18/15
f 4/19/4 3/12/3 11/13/11 12/20/12
f 126/2/126 1/14/1 8/16/8 9/3/9
f 6/6/6 5/17/5 15/18/15 16/7/16
f 127/9/127 4/19/4 12/20/12 13/10/13
f 89/21/89 16/7/16 25/22/25
f 14/11/14 13/10/13 22/23/22 23/24/23
f 11/13/11 10/4/10 19/25/19 20/26/20
f 8/16/8 7/27/7 17/28/17
f 15/18/15 14/11/14 23/24/23 24/29/24
f 12/20/12 11/13/11 20/26/20 21/30/21
f 9/3/9 8/16/8 17/28/17 18/31/18
f 16/7/16 15/18/15 24/29/24 25/22/25
f 13/10/13 12/20/12 21/30/21 22/23/22
f 10/4/10 9/3/9 18/31/18 19/25/19
f 22/23/22 21/30/21 30/32/30 31/33/31
f 19/25/19 18/31/18 27/34/27 28/35/28
f 89/36/89 25/22/25 34/37/34
f 23/24/23 22/23/22 31/33/31 32/38/32
f 20/26/20 19/25/19 28/35/28 29/39/29
f 17/28/17 7/40/7 26/41/26
f 24/29/24 23/24/23 32/38/32 33/42/33
f 21/30/21 20/26/20 29/39/29 30/32/30
f 18/31/18 17/28/17 26/41/26 27/34/27
f 25/22/25 24/29/24 33/42/33 34/37/34
f 27/34/27 26/41/26 35/43/35 36/44/36
f 34/37/34 33/42/33 42/45/42 43/46/43
f 31/33/31 30/32/30 39/47/39 40/48/40
f 28/35/28 27/34/27 36/44/36 37/49/37
f 89/50/89 34/37/34 43/46/43
f 32/38/32 31/33/31 40/48/40 41/51/41
f 29/39/29 28/35/28 37/49/37 38/52/38
f 26/41/26 7/53/7 35/43/35
f 33/42/33 32/38/32 41/51/41 42/45/42
f 30/32/30 29/39/29 38/52/38 39/47/39
f 39/47/39 38/52/38 47/54/47 48/55/48
f 36/44/36 35/43/35 44/56/44 45/57/45
f 43/46/43 42/45/42 51/58/51 52/59/52
f 40/48/40 39/47/39 48/55/48 49/60/49
f 37/49/37 36/44/36 45/57/45 46/61/46
f 89/62/89 43/46/43 52/59/52
f 41/51/41 40/48/40 49/60/49 50/63/50
f 38/52/38 37/49/37 46/61/46 47/54/47
f 35/43/35 7/64/7 44/56/44
f 42/45/42 41/51/41 50/63/50 51/58/51
f 44/56/44 7/65/7 53/66/53
f 51/58/51 50/63/50 59/67/59 60/68/60
f 48/55/48 47/54/47 56/69/56 57/70/57
f 45/57/45 44/56/44 53/66/53 54/71/54
f 52/59/52 51/58/51 60/68/60 61/72/61
f 49/60/49 48/55/48 57/70/57 58/73/58
f 46/61/46 45/57/45 54/71/54 55/74/55
f 89/75/89 52/59/52 61/72/61
f 50/63/50 49/60/49 58/73/58 59/67/59
f 47/54/47 46/61/46 55/74/55 56/69/56
f 59/67/59 58/73/58 67/76/67 68/77/68
f 56/69/56 55/74/55 64/78/64 65/79/65
f 53/66/53 7/80/7 62/81/62
f 60/68/60 59/67/59 68/77/68 69/82/69
f 57/70/57 56/69/56 65/79/65 66/83/66
f 54/71/54 53/66/53 62/81/62 63/84/63
f 61/72/61 60/68/60 69/82/69 70/85/70
f 58/73/58 57/70/57 66/83/66 67/76/67
f 55/74/55 54/71/54 63/84/63 64/78/64
f 89/86/89 61/72/61 70/85/70
f 64/78/64 63/84/63 72/87/72 73/88/73
f 89/89/89 70/85/70 79/90/79
f 68/77/68 67/76/67 76/91/76 77/92/77
f 65/79/65 64/78/64 73/88/73 74/93/74
f 62/81/62 7/94/7 71/95/71
f 69/82/69 68/77/68 77/92/77 78/96/78
f 66/83/66 65/79/65 74/93/74 75/97/75
f 63/84/63 62/81/62 71/95/71 72/87/72
f 70/85/70 69/82/69 78/96/78 79/90/79
f 67/76/67 66/83/66 75/97/75 76/91/76
f 76/91/76 75/97/75 84/98/84 85/99/85
f 73/88/73 72/87/72 81/100/81 82/101/82
f 89/102/89 79/90/79 88/103/88
f 77/92/77 76/91/76 85/99/85 86/104/86
f 74/93/74 73/88/73 82/101/82 83/105/83
f 71/95/71 7/106/7 80/107/80
f 78/96/78 77/92/77 86/104/86 87/108/87
f 75/97/75 74/93/74 83/105/83 84/98/84
f 72/87/72 71/95/71 80/107/80 81/100/81
f 79/90/79 78/96/78 87/108/87 88/103/88
f 81/100/81 80/107/80 90/109/90 91/110/91
f 88/103/88 87/108/87 97/111/97 98/112/98
f 85/99/85 84/98/84 94/113/94 95/114/95
f 82/101/82 81/100/81 91/110/91 92/115/92
f 89/116/89 88/103/88 98/112/98
f 86/104/86 85/99/85 95/114/95 96/117/96
f 83/105/83 82/101/82 92/115/92 93/118/93
f 80/107/80 7/119/7 90/109/90
f 87/108/87 86/104/86 96/117/96 97/111/97
f 84/98/84 83/105/83 93/118/93 94/113/94
f 97/120/97 96/121/96 105/122/105 106/123/106
f 94/124/94 93/125/93 102/126/102 103/127/103
f 91/128/91 90/129/90 99/130/99 100/131/100
f 98/132/98 97/120/97 106/123/106 107/133/107
f 95/134/95 94/124/94 103/127/103 104/135/104
f 92/136/92 91/128/91 100/131/100 101/137/101
f 89/138/89 98/132/98 107/133/107
f 96/121/96 95/134/95 104/135/104 105/122/105
f 93/125/93 92/136/92 101/137/101 102/126/102
f 90/129/90 7/139/7 99/130/99
f 102/126/102 101/137/101 110/140/110 111/141/111
f 99/130/99 7/142/7 108/143/108
f 106/123/106 105/122/105 114/144/114 115/145/115
f 103/127/103 102/126/102 111/141/111 112/146/112
f 100/131/100 99/130/99 108/143/108 109/147/109
f 107/133/107 106/123/106 115/145/115 116/148/116
f 104/135/104 103/127/103 112/146/112 113/149/113
f 101/137/101 100/131/100 109/147/109 110/140/110
f 89/150/89 107/133/107 116/148/116
f 105/122/105 104/135/104 113/149/113 114/144/114
f 114/144/114 113/149/113 122/151/122 123/152/123
f 111/141/111 110/140/110 119/153/119 120/154/120
f 108/143/108 7/155/7 117/156/117
f 115/145/115 114/144/114 123/152/123 124/157/124
f 112/146/112 111/141/111 120/154/120 121/158/121
f 109/147/109 108/143/108 117/156/117 118/159/118
f 116/148/116 115/145/115 124/157/124 125/160/125
f 113/149/113 112/146/112 121/158/121 122/151/122
f 110/140/110 109/147/109 118/159/118 119/153/119
f 89/161/89 116/148/116 125/160/125
f 119/153/119 118/159/118 126/2/126 2/1/2
f 89/162/89 125/160/125 6/6/6
f 123/152/123 122/151/122 127/9/127 128/8/128
f 120/154/120 119/153/119 2/1/2 3/12/3
f 117/156/117 7/163/7 1/14/1
f 124/157/124 123/152/123 128/8/128 5/17/5
f 121/158/121 120/154/120 3/12/3 4/19/4
f 118/159/118 117/156/117 1/14/1 126/2/126
f 125/160/125 124/157/124 5/17/5 6/6/6
f 122/151/122 121/158/121 4/19/4 127/9/127
