# Blender 4.5.2 LTS
# www.blender.org
mtllib smooth_sphere1.mtl
o Sphere
v 0.000000 0.989821 -0.142315
v 0.000000 0.959493 -0.281733
v 0.000000 0.909632 -0.415415
v 0.000000 0.841254 -0.540641
v 0.000000 0.540641 -0.841254
v 0.000000 0.281733 -0.959493
v 0.000000 0.142315 -0.989821
v 0.000000 0.000000 -1.000000
v 0.000000 -0.142315 -0.989821
v 0.000000 -0.281733 -0.959493
v 0.000000 -0.415415 -0.909632
v 0.000000 -0.841254 -0.540641
v 0.000000 -0.909632 -0.415415
v 0.024713 0.989821 -0.140153
v 0.048922 0.959493 -0.277452
v 0.072136 0.909632 -0.409104
v 0.093881 0.841254 -0.532427
v 0.113715 0.755750 -0.644912
v 0.131235 0.654861 -0.744268
v 0.146082 0.540641 -0.828473
v 0.157956 0.415415 -0.895813
v 0.166614 0.281733 -0.944916
v 0.171881 0.142315 -0.974784
v 0.173648 0.000000 -0.984808
v 0.171881 -0.142315 -0.974784
v 0.166614 -0.281733 -0.944916
v 0.157956 -0.415415 -0.895813
v 0.146082 -0.540641 -0.828473
v 0.131235 -0.654861 -0.744268
v 0.113715 -0.755750 -0.644912
v 0.093881 -0.841254 -0.532427
v 0.072136 -0.909632 -0.409104
v 0.048922 -0.959493 -0.277452
v 0.024713 -0.989821 -0.140153
v 0.048675 0.989821 -0.133732
v 0.096358 0.959493 -0.264742
v 0.142080 0.909632 -0.390362
v 0.184910 0.841254 -0.508036
v 0.223976 0.755750 -0.615368
v 0.258482 0.654861 -0.710172
v 0.287726 0.540641 -0.790520
v 0.311112 0.415415 -0.854774
v 0.328166 0.281733 -0.901628
v 0.338539 0.142315 -0.930128
v 0.342020 0.000000 -0.939693
v 0.338539 -0.142315 -0.930128
v 0.328166 -0.281733 -0.901628
v 0.311112 -0.415415 -0.854774
v 0.287726 -0.540641 -0.790520
v 0.258482 -0.654861 -0.710172
v 0.223976 -0.755750 -0.615368
v 0.184910 -0.841254 -0.508036
v 0.142080 -0.909632 -0.390362
v 0.096358 -0.959493 -0.264742
v 0.048675 -0.989821 -0.133732
v 0.071157 0.989821 -0.123248
v 0.140866 0.959493 -0.243988
v 0.207708 0.909632 -0.359760
v 0.270320 0.841254 -0.468209
v 0.327430 0.755750 -0.567126
v 0.377875 0.654861 -0.654498
v 0.420627 0.540641 -0.728547
v 0.454816 0.415415 -0.787764
v 0.479746 0.281733 -0.830945
v 0.494911 0.142315 -0.857210
v 0.500000 0.000000 -0.866025
v 0.494911 -0.142315 -0.857210
v 0.479746 -0.281733 -0.830945
v 0.454816 -0.415415 -0.787764
v 0.420627 -0.540641 -0.728547
v 0.377875 -0.654861 -0.654498
v 0.327430 -0.755750 -0.567126
v 0.270320 -0.841254 -0.468209
v 0.207708 -0.909632 -0.359760
v 0.140866 -0.959493 -0.243988
v 0.071157 -0.989821 -0.123248
v 0.091478 0.989821 -0.109019
v 0.181094 0.959493 -0.215820
v 0.267024 0.909632 -0.318226
v 0.347517 0.841254 -0.414155
v 0.420936 0.755750 -0.501652
v 0.485786 0.654861 -0.578938
v 0.540747 0.540641 -0.644437
v 0.584700 0.415415 -0.696818
v 0.616750 0.281733 -0.735014
v 0.636245 0.142315 -0.758247
v 0.642788 0.000000 -0.766044
v 0.636245 -0.142315 -0.758247
v 0.616750 -0.281733 -0.735014
v 0.584700 -0.415415 -0.696818
v 0.540747 -0.540641 -0.644437
v 0.485786 -0.654861 -0.578938
v 0.420936 -0.755750 -0.501652
v 0.347517 -0.841254 -0.414155
v 0.267024 -0.909632 -0.318226
v 0.181094 -0.959493 -0.215820
v 0.091478 -0.989821 -0.109019
v 0.109019 0.989821 -0.091478
v 0.215820 0.959493 -0.181094
v 0.318226 0.909632 -0.267024
v 0.414155 0.841254 -0.347517
v 0.501652 0.755750 -0.420936
v 0.578938 0.654861 -0.485786
v 0.644437 0.540641 -0.540747
v 0.696818 0.415415 -0.584700
v 0.735014 0.281733 -0.616750
v 0.758247 0.142315 -0.636245
v 0.766044 0.000000 -0.642788
v 0.758247 -0.142315 -0.636245
v 0.735014 -0.281733 -0.616750
v 0.696818 -0.415415 -0.584700
v 0.644437 -0.540641 -0.540747
v 0.578938 -0.654861 -0.485786
v 0.501652 -0.755750 -0.420936
v 0.414155 -0.841254 -0.347517
v 0.318226 -0.909632 -0.267024
v 0.215820 -0.959493 -0.181094
v 0.109019 -0.989821 -0.091478
v 0.000000 1.000000 0.000000
v 0.123248 0.989821 -0.071157
v 0.243988 0.959493 -0.140866
v 0.359760 0.909632 -0.207707
v 0.468209 0.841254 -0.270320
v 0.567126 0.755750 -0.327430
v 0.654498 0.654861 -0.377875
v 0.728547 0.540641 -0.420627
v 0.787764 0.415415 -0.454816
v 0.830945 0.281733 -0.479746
v 0.857210 0.142315 -0.494911
v 0.866025 0.000000 -0.500000
v 0.857210 -0.142315 -0.494911
v 0.830945 -0.281733 -0.479746
v 0.787764 -0.415415 -0.454816
v 0.728547 -0.540641 -0.420627
v 0.654498 -0.654861 -0.377875
v 0.567126 -0.755750 -0.327430
v 0.468209 -0.841254 -0.270320
v 0.359760 -0.909632 -0.207707
v 0.243988 -0.959493 -0.140866
v 0.123248 -0.989821 -0.071157
v 0.133732 0.989821 -0.048675
v 0.264742 0.959493 -0.096358
v 0.390362 0.909632 -0.142080
v 0.508036 0.841254 -0.184910
v 0.615368 0.755750 -0.223976
v 0.710172 0.654861 -0.258482
v 0.790519 0.540641 -0.287726
v 0.854774 0.415415 -0.311112
v 0.901628 0.281733 -0.328166
v 0.930128 0.142315 -0.338539
v 0.939692 0.000000 -0.342020
v 0.930128 -0.142315 -0.338539
v 0.901628 -0.281733 -0.328166
v 0.854774 -0.415415 -0.311112
v 0.790519 -0.540641 -0.287726
v 0.710172 -0.654861 -0.258482
v 0.615368 -0.755750 -0.223976
v 0.508036 -0.841254 -0.184910
v 0.390362 -0.909632 -0.142080
v 0.264742 -0.959493 -0.096358
v 0.133732 -0.989821 -0.048675
v 0.140153 0.989821 -0.024713
v 0.277452 0.959493 -0.048922
v 0.409104 0.909632 -0.072136
v 0.532427 0.841254 -0.093881
v 0.644912 0.755750 -0.113715
v 0.744268 0.654861 -0.131234
v 0.828473 0.540641 -0.146082
v 0.895812 0.415415 -0.157956
v 0.944916 0.281733 -0.166614
v 0.974784 0.142315 -0.171881
v 0.984808 0.000000 -0.173648
v 0.974784 -0.142315 -0.171881
v 0.944916 -0.281733 -0.166614
v 0.895812 -0.415415 -0.157956
v 0.828473 -0.540641 -0.146082
v 0.744268 -0.654861 -0.131234
v 0.644912 -0.755750 -0.113715
v 0.532427 -0.841254 -0.093881
v 0.409104 -0.909632 -0.072136
v 0.277452 -0.959493 -0.048922
v 0.140153 -0.989821 -0.024713
v 0.000000 -1.000000 0.000000
v 0.142315 0.989821 0.000000
v 0.281733 0.959493 0.000000
v 0.415415 0.909632 0.000000
v 0.540641 0.841254 0.000000
v 0.654861 0.755750 0.000000
v 0.755749 0.654861 0.000000
v 0.841253 0.540641 0.000000
v 0.909632 0.415415 -0.000000
v 0.959493 0.281733 -0.000000
v 0.989821 0.142315 0.000000
v 1.000000 0.000000 -0.000000
v 0.989821 -0.142315 0.000000
v 0.959493 -0.281733 -0.000000
v 0.909632 -0.415415 -0.000000
v 0.841253 -0.540641 0.000000
v 0.755749 -0.654861 0.000000
v 0.654861 -0.755750 0.000000
v 0.540641 -0.841254 0.000000
v 0.415415 -0.909632 0.000000
v 0.281733 -0.959493 0.000000
v 0.142315 -0.989821 0.000000
v 0.140153 0.989821 0.024713
v 0.277452 0.959493 0.048922
v 0.409104 0.909632 0.072136
v 0.532427 0.841254 0.093881
v 0.644912 0.755750 0.113715
v 0.744268 0.654861 0.131234
v 0.828473 0.540641 0.146082
v 0.895812 0.415415 0.157956
v 0.944916 0.281733 0.166614
v 0.974783 0.142315 0.171881
v 0.984808 0.000000 0.173648
v 0.974783 -0.142315 0.171881
v 0.944916 -0.281733 0.166614
v 0.895812 -0.415415 0.157956
v 0.828473 -0.540641 0.146082
v 0.744268 -0.654861 0.131234
v 0.644912 -0.755750 0.113715
v 0.532427 -0.841254 0.093881
v 0.409104 -0.909632 0.072136
v 0.277452 -0.959493 0.048922
v 0.140153 -0.989821 0.024713
v 0.133732 0.989821 0.048675
v 0.264742 0.959493 0.096358
v 0.390362 0.909632 0.142080
v 0.508036 0.841254 0.184910
v 0.615368 0.755750 0.223976
v 0.710172 0.654861 0.258482
v 0.790519 0.540641 0.287726
v 0.854774 0.415415 0.311112
v 0.901628 0.281733 0.328166
v 0.930127 0.142315 0.338539
v 0.939692 0.000000 0.342020
v 0.930127 -0.142315 0.338539
v 0.901628 -0.281733 0.328166
v 0.854774 -0.415415 0.311112
v 0.790519 -0.540641 0.287726
v 0.710172 -0.654861 0.258482
v 0.615368 -0.755750 0.223976
v 0.508036 -0.841254 0.184910
v 0.390362 -0.909632 0.142080
v 0.264742 -0.959493 0.096358
v 0.133732 -0.989821 0.048675
v 0.123248 0.989821 0.071157
v 0.243988 0.959493 0.140866
v 0.359760 0.909632 0.207707
v 0.468209 0.841254 0.270320
v 0.567126 0.755750 0.327430
v 0.654498 0.654861 0.377875
v 0.728547 0.540641 0.420627
v 0.787764 0.415415 0.454816
v 0.830945 0.281733 0.479746
v 0.857210 0.142315 0.494911
v 0.866025 0.000000 0.500000
v 0.857210 -0.142315 0.494911
v 0.830945 -0.281733 0.479746
v 0.787764 -0.415415 0.454816
v 0.728547 -0.540641 0.420627
v 0.654498 -0.654861 0.377875
v 0.567126 -0.755750 0.327430
v 0.468209 -0.841254 0.270320
v 0.359760 -0.909632 0.207707
v 0.243988 -0.959493 0.140866
v 0.123248 -0.989821 0.071157
v 0.109019 0.989821 0.091478
v 0.215820 0.959493 0.181094
v 0.318226 0.909632 0.267024
v 0.414155 0.841254 0.347517
v 0.501652 0.755750 0.420936
v 0.578938 0.654861 0.485786
v 0.644437 0.540641 0.540747
v 0.696818 0.415415 0.584700
v 0.735014 0.281733 0.616750
v 0.758247 0.142315 0.636245
v 0.766044 0.000000 0.642787
v 0.758247 -0.142315 0.636245
v 0.735014 -0.281733 0.616750
v 0.696818 -0.415415 0.584700
v 0.644437 -0.540641 0.540747
v 0.578938 -0.654861 0.485786
v 0.501652 -0.755750 0.420936
v 0.414155 -0.841254 0.347517
v 0.318226 -0.909632 0.267024
v 0.215820 -0.959493 0.181094
v 0.109019 -0.989821 0.091478
v 0.091478 0.989821 0.109019
v 0.181094 0.959493 0.215820
v 0.267024 0.909632 0.318226
v 0.347517 0.841254 0.414155
v 0.420936 0.755750 0.501652
v 0.485786 0.654861 0.578938
v 0.540747 0.540641 0.644437
v 0.584700 0.415415 0.696818
v 0.616750 0.281733 0.735014
v 0.636245 0.142315 0.758247
v 0.642787 0.000000 0.766044
v 0.636245 -0.142315 0.758247
v 0.616750 -0.281733 0.735014
v 0.584700 -0.415415 0.696818
v 0.540747 -0.540641 0.644437
v 0.485786 -0.654861 0.578938
v 0.420936 -0.755750 0.501652
v 0.347517 -0.841254 0.414155
v 0.267024 -0.909632 0.318226
v 0.181094 -0.959493 0.215820
v 0.091478 -0.989821 0.109019
v 0.071157 0.989821 0.123248
v 0.140866 0.959493 0.243988
v 0.207707 0.909632 0.359760
v 0.270320 0.841254 0.468209
v 0.327430 0.755750 0.567126
v 0.377875 0.654861 0.654498
v 0.420626 0.540641 0.728547
v 0.454816 0.415415 0.787764
v 0.479746 0.281733 0.830945
v 0.494910 0.142315 0.857210
v 0.500000 0.000000 0.866025
v 0.494910 -0.142315 0.857210
v 0.479746 -0.281733 0.830945
v 0.454816 -0.415415 0.787764
v 0.420626 -0.540641 0.728547
v 0.377875 -0.654861 0.654498
v 0.327430 -0.755750 0.567126
v 0.270320 -0.841254 0.468209
v 0.207707 -0.909632 0.359760
v 0.140866 -0.959493 0.243988
v 0.071157 -0.989821 0.123248
v 0.048675 0.989821 0.133732
v 0.096358 0.959493 0.264742
v 0.142080 0.909632 0.390362
v 0.184910 0.841254 0.508036
v 0.223975 0.755750 0.615368
v 0.258481 0.654861 0.710172
v 0.287725 0.540641 0.790519
v 0.311112 0.415415 0.854774
v 0.328166 0.281733 0.901628
v 0.338539 0.142315 0.930127
v 0.342020 0.000000 0.939692
v 0.338539 -0.142315 0.930127
v 0.328166 -0.281733 0.901628
v 0.311112 -0.415415 0.854774
v 0.287725 -0.540641 0.790519
v 0.258481 -0.654861 0.710172
v 0.223975 -0.755750 0.615368
v 0.184910 -0.841254 0.508036
v 0.142080 -0.909632 0.390362
v 0.096358 -0.959493 0.264742
v 0.048675 -0.989821 0.133732
v 0.024713 0.989821 0.140153
v 0.048922 0.959493 0.277452
v 0.072136 0.909632 0.409104
v 0.093881 0.841254 0.532427
v 0.113715 0.755750 0.644912
v 0.131234 0.654861 0.744268
v 0.146082 0.540641 0.828472
v 0.157956 0.415415 0.895812
v 0.166614 0.281733 0.944916
v 0.171881 0.142315 0.974783
v 0.173648 0.000000 0.984807
v 0.171881 -0.142315 0.974783
v 0.166614 -0.281733 0.944916
v 0.157956 -0.415415 0.895812
v 0.146082 -0.540641 0.828472
v 0.131234 -0.654861 0.744268
v 0.113715 -0.755750 0.644912
v 0.093881 -0.841254 0.532427
v 0.072136 -0.909632 0.409104
v 0.048922 -0.959493 0.277452
v 0.024713 -0.989821 0.140153
v -0.000000 0.989821 0.142315
v -0.000000 0.959493 0.281733
v 0.000000 0.909632 0.415415
v -0.000000 0.841254 0.540641
v -0.000000 0.755750 0.654861
v -0.000000 0.654861 0.755749
v -0.000000 0.540641 0.841253
v -0.000000 0.415415 0.909632
v 0.000000 0.281733 0.959492
v -0.000000 0.142315 0.989821
v -0.000000 0.000000 1.000000
v -0.000000 -0.142315 0.989821
v 0.000000 -0.281733 0.959492
v -0.000000 -0.415415 0.909632
v -0.000000 -0.540641 0.841253
v -0.000000 -0.654861 0.755749
v -0.000000 -0.755750 0.654861
v -0.000000 -0.841254 0.540641
v 0.000000 -0.909632 0.415415
v -0.000000 -0.959493 0.281733
v -0.000000 -0.989821 0.142315
v -0.024713 0.989821 0.140153
v -0.048922 0.959493 0.277452
v -0.072136 0.909632 0.409104
v -0.093881 0.841254 0.532427
v -0.113715 0.755750 0.644912
v -0.131235 0.654861 0.744268
v -0.146082 0.540641 0.828472
v -0.157956 0.415415 0.895812
v -0.166614 0.281733 0.944916
v -0.171881 0.142315 0.974783
v -0.173648 0.000000 0.984807
v -0.171881 -0.142315 0.974783
v -0.166614 -0.281733 0.944916
v -0.157956 -0.415415 0.895812
v -0.146082 -0.540641 0.828472
v -0.131235 -0.654861 0.744268
v -0.113715 -0.755750 0.644912
v -0.093881 -0.841254 0.532427
v -0.072136 -0.909632 0.409104
v -0.048922 -0.959493 0.277452
v -0.024713 -0.989821 0.140153
v -0.048675 0.989821 0.133732
v -0.096358 0.959493 0.264742
v -0.142080 0.909632 0.390362
v -0.184910 0.841254 0.508036
v -0.223976 0.755750 0.615368
v -0.258482 0.654861 0.710172
v -0.287726 0.540641 0.790519
v -0.311112 0.415415 0.854774
v -0.328166 0.281733 0.901628
v -0.338539 0.142315 0.930127
v -0.342020 0.000000 0.939692
v -0.338539 -0.142315 0.930127
v -0.328166 -0.281733 0.901628
v -0.311112 -0.415415 0.854774
v -0.287726 -0.540641 0.790519
v -0.258482 -0.654861 0.710172
v -0.223976 -0.755750 0.615368
v -0.184910 -0.841254 0.508036
v -0.142080 -0.909632 0.390362
v -0.096358 -0.959493 0.264742
v -0.048675 -0.989821 0.133732
v -0.071157 0.989821 0.123248
v -0.140866 0.959493 0.243988
v -0.207707 0.909632 0.359760
v -0.270320 0.841254 0.468208
v -0.327430 0.755750 0.567126
v -0.377875 0.654861 0.654498
v -0.420627 0.540641 0.728546
v -0.454816 0.415415 0.787764
v -0.479746 0.281733 0.830945
v -0.494910 0.142315 0.857210
v -0.500000 0.000000 0.866025
v -0.494910 -0.142315 0.857210
v -0.479746 -0.281733 0.830945
v -0.454816 -0.415415 0.787764
v -0.420627 -0.540641 0.728546
v -0.377875 -0.654861 0.654498
v -0.327430 -0.755750 0.567126
v -0.270320 -0.841254 0.468208
v -0.207707 -0.909632 0.359760
v -0.140866 -0.959493 0.243988
v -0.071157 -0.989821 0.123248
v -0.091478 0.989821 0.109019
v -0.181094 0.959493 0.215820
v -0.267024 0.909632 0.318226
v -0.347517 0.841254 0.414155
v -0.420936 0.755750 0.501652
v -0.485786 0.654861 0.578937
v -0.540747 0.540641 0.644437
v -0.584700 0.415415 0.696818
v -0.616750 0.281733 0.735014
v -0.636244 0.142315 0.758247
v -0.642787 0.000000 0.766044
v -0.636244 -0.142315 0.758247
v -0.616750 -0.281733 0.735014
v -0.584700 -0.415415 0.696818
v -0.540747 -0.540641 0.644437
v -0.485786 -0.654861 0.578937
v -0.420936 -0.755750 0.501652
v -0.347517 -0.841254 0.414155
v -0.267024 -0.909632 0.318226
v -0.181094 -0.959493 0.215820
v -0.091478 -0.989821 0.109019
v -0.109019 0.989821 0.091478
v -0.215820 0.959493 0.181094
v -0.318226 0.909632 0.267023
v -0.414155 0.841254 0.347517
v -0.501652 0.755750 0.420936
v -0.578938 0.654861 0.485786
v -0.644437 0.540641 0.540747
v -0.696818 0.415415 0.584700
v -0.735014 0.281733 0.616750
v -0.758247 0.142315 0.636244
v -0.766044 0.000000 0.642787
v -0.758247 -0.142315 0.636244
v -0.735014 -0.281733 0.616750
v -0.696818 -0.415415 0.584700
v -0.644437 -0.540641 0.540747
v -0.578938 -0.654861 0.485786
v -0.501652 -0.755750 0.420936
v -0.414155 -0.841254 0.347517
v -0.318226 -0.909632 0.267023
v -0.215820 -0.959493 0.181094
v -0.109019 -0.989821 0.091478
v -0.123248 0.989821 0.071157
v -0.243988 0.959493 0.140866
v -0.359760 0.909632 0.207707
v -0.468208 0.841254 0.270320
v -0.567126 0.755750 0.327430
v -0.654498 0.654861 0.377874
v -0.728546 0.540641 0.420626
v -0.787764 0.415415 0.454816
v -0.830945 0.281733 0.479746
v -0.857210 0.142315 0.494910
v -0.866025 0.000000 0.500000
v -0.857210 -0.142315 0.494910
v -0.830945 -0.281733 0.479746
v -0.787764 -0.415415 0.454816
v -0.728546 -0.540641 0.420626
v -0.654498 -0.654861 0.377874
v -0.567126 -0.755750 0.327430
v -0.468208 -0.841254 0.270320
v -0.359760 -0.909632 0.207707
v -0.243988 -0.959493 0.140866
v -0.123248 -0.989821 0.071157
v -0.133732 0.989821 0.048674
v -0.264742 0.959493 0.096358
v -0.390362 0.909632 0.142080
v -0.508036 0.841254 0.184910
v -0.615368 0.755750 0.223975
v -0.710172 0.654861 0.258481
v -0.790519 0.540641 0.287725
v -0.854774 0.415415 0.311112
v -0.901628 0.281733 0.328166
v -0.930127 0.142315 0.338538
v -0.939692 0.000000 0.342020
v -0.930127 -0.142315 0.338538
v -0.901628 -0.281733 0.328166
v -0.854774 -0.415415 0.311112
v -0.790519 -0.540641 0.287725
v -0.710172 -0.654861 0.258481
v -0.615368 -0.755750 0.223975
v -0.508036 -0.841254 0.184910
v -0.390362 -0.909632 0.142080
v -0.264742 -0.959493 0.096358
v -0.133732 -0.989821 0.048674
v -0.140153 0.989821 0.024713
v -0.277452 0.959493 0.048922
v -0.409104 0.909632 0.072136
v -0.532427 0.841254 0.093881
v -0.644912 0.755750 0.113715
v -0.744268 0.654861 0.131234
v -0.828472 0.540641 0.146082
v -0.895812 0.415415 0.157956
v -0.944915 0.281733 0.166614
v -0.974783 0.142315 0.171880
v -0.984807 0.000000 0.173648
v -0.974783 -0.142315 0.171880
v -0.944915 -0.281733 0.166614
v -0.895812 -0.415415 0.157956
v -0.828472 -0.540641 0.146082
v -0.744268 -0.654861 0.131234
v -0.644912 -0.755750 0.113715
v -0.532427 -0.841254 0.093881
v -0.409104 -0.909632 0.072136
v -0.277452 -0.959493 0.048922
v -0.140153 -0.989821 0.024713
v -0.142315 0.989821 -0.000000
v -0.281732 0.959493 -0.000000
v -0.415415 0.909632 -0.000000
v -0.540640 0.841254 -0.000000
v -0.654860 0.755750 -0.000000
v -0.755749 0.654861 -0.000000
v -0.841253 0.540641 -0.000000
v -0.909631 0.415415 -0.000000
v -0.959492 0.281733 -0.000000
v -0.989820 0.142315 -0.000000
v -0.999999 0.000000 -0.000000
v -0.989820 -0.142315 -0.000000
v -0.959492 -0.281733 -0.000000
v -0.909631 -0.415415 -0.000000
v -0.841253 -0.540641 -0.000000
v -0.755749 -0.654861 -0.000000
v -0.654860 -0.755750 -0.000000
v -0.540640 -0.841254 -0.000000
v -0.415415 -0.909632 -0.000000
v -0.281732 -0.959493 -0.000000
v -0.142315 -0.989821 -0.000000
v -0.140153 0.989821 -0.024713
v -0.277452 0.959493 -0.048922
v -0.409104 0.909632 -0.072136
v -0.532427 0.841254 -0.093881
v -0.644912 0.755750 -0.113715
v -0.744268 0.654861 -0.131235
v -0.828472 0.540641 -0.146082
v -0.895812 0.415415 -0.157956
v -0.944915 0.281733 -0.166614
v -0.974783 0.142315 -0.171881
v -0.984807 0.000000 -0.173648
v -0.974783 -0.142315 -0.171881
v -0.944915 -0.281733 -0.166614
v -0.895812 -0.415415 -0.157956
v -0.828472 -0.540641 -0.146082
v -0.744268 -0.654861 -0.131235
v -0.644912 -0.755750 -0.113715
v -0.532427 -0.841254 -0.093881
v -0.409104 -0.909632 -0.072136
v -0.277452 -0.959493 -0.048922
v -0.140153 -0.989821 -0.024713
v -0.133732 0.989821 -0.048675
v -0.264742 0.959493 -0.096358
v -0.390362 0.909632 -0.142080
v -0.508036 0.841254 -0.184910
v -0.615367 0.755750 -0.223976
v -0.710172 0.654861 -0.258482
v -0.790519 0.540641 -0.287726
v -0.854774 0.415415 -0.311112
v -0.901628 0.281733 -0.328166
v -0.930127 0.142315 -0.338539
v -0.939692 0.000000 -0.342020
v -0.930127 -0.142315 -0.338539
v -0.901628 -0.281733 -0.328166
v -0.854774 -0.415415 -0.311112
v -0.790519 -0.540641 -0.287726
v -0.710172 -0.654861 -0.258482
v -0.615367 -0.755750 -0.223976
v -0.508036 -0.841254 -0.184910
v -0.390362 -0.909632 -0.142080
v -0.264742 -0.959493 -0.096358
v -0.133732 -0.989821 -0.048675
v -0.123248 0.989821 -0.071157
v -0.243988 0.959493 -0.140866
v -0.359760 0.909632 -0.207707
v -0.468208 0.841254 -0.270320
v -0.567126 0.755750 -0.327430
v -0.654498 0.654861 -0.377875
v -0.728546 0.540641 -0.420627
v -0.787764 0.415415 -0.454816
v -0.830945 0.281733 -0.479746
v -0.857210 0.142315 -0.494910
v -0.866025 0.000000 -0.500000
v -0.857210 -0.142315 -0.494910
v -0.830945 -0.281733 -0.479746
v -0.787764 -0.415415 -0.454816
v -0.728546 -0.540641 -0.420627
v -0.654498 -0.654861 -0.377875
v -0.567126 -0.755750 -0.327430
v -0.468208 -0.841254 -0.270320
v -0.359760 -0.909632 -0.207707
v -0.243988 -0.959493 -0.140866
v -0.123248 -0.989821 -0.071157
v -0.109019 0.989821 -0.091478
v -0.215820 0.959493 -0.181094
v -0.318226 0.909632 -0.267023
v -0.414155 0.841254 -0.347517
v -0.501652 0.755750 -0.420936
v -0.578937 0.654861 -0.485786
v -0.644437 0.540641 -0.540747
v -0.696818 0.415415 -0.584700
v -0.735014 0.281733 -0.616750
v -0.758246 0.142315 -0.636244
v -0.766044 0.000000 -0.642787
v -0.758246 -0.142315 -0.636244
v -0.735014 -0.281733 -0.616750
v -0.696818 -0.415415 -0.584700
v -0.644437 -0.540641 -0.540747
v -0.578937 -0.654861 -0.485786
v -0.501652 -0.755750 -0.420936
v -0.414155 -0.841254 -0.347517
v -0.318226 -0.909632 -0.267023
v -0.215820 -0.959493 -0.181094
v -0.109019 -0.989821 -0.091478
v -0.091478 0.989821 -0.109019
v -0.181094 0.959493 -0.215820
v -0.267023 0.909632 -0.318226
v -0.347517 0.841254 -0.414155
v -0.420936 0.755750 -0.501652
v -0.485786 0.654861 -0.578937
v -0.540747 0.540641 -0.644437
v -0.584700 0.415415 -0.696818
v -0.616750 0.281733 -0.735014
v -0.636244 0.142315 -0.758246
v -0.642787 0.000000 -0.766044
v -0.636244 -0.142315 -0.758246
v -0.616750 -0.281733 -0.735014
v -0.584700 -0.415415 -0.696818
v -0.540747 -0.540641 -0.644437
v -0.485786 -0.654861 -0.578937
v -0.420936 -0.755750 -0.501652
v -0.347517 -0.841254 -0.414155
v -0.267023 -0.909632 -0.318226
v -0.181094 -0.959493 -0.215820
v -0.091478 -0.989821 -0.109019
v -0.071157 0.989821 -0.123248
v -0.140866 0.959493 -0.243988
v -0.207707 0.909632 -0.359760
v -0.270320 0.841254 -0.468208
v -0.327430 0.755750 -0.567126
v -0.377874 0.654861 -0.654498
v -0.420626 0.540641 -0.728546
v -0.454816 0.415415 -0.787764
v -0.479746 0.281733 -0.830945
v -0.494910 0.142315 -0.857210
v -0.500000 0.000000 -0.866025
v -0.494910 -0.142315 -0.857210
v -0.479746 -0.281733 -0.830945
v -0.454816 -0.415415 -0.787764
v -0.420626 -0.540641 -0.728546
v -0.377874 -0.654861 -0.654498
v -0.327430 -0.755750 -0.567126
v -0.270320 -0.841254 -0.468208
v -0.207707 -0.909632 -0.359760
v -0.140866 -0.959493 -0.243988
v -0.071157 -0.989821 -0.123248
v -0.048674 0.989821 -0.133732
v -0.096358 0.959493 -0.264742
v -0.142080 0.909632 -0.390362
v -0.184910 0.841254 -0.508036
v -0.223975 0.755750 -0.615368
v -0.258481 0.654861 -0.710172
v -0.287725 0.540641 -0.790519
v -0.311112 0.415415 -0.854774
v -0.328166 0.281733 -0.901628
v -0.338538 0.142315 -0.930127
v -0.342020 0.000000 -0.939692
v -0.338538 -0.142315 -0.930127
v -0.328166 -0.281733 -0.901628
v -0.311112 -0.415415 -0.854774
v -0.287725 -0.540641 -0.790519
v -0.258481 -0.654861 -0.710172
v -0.223975 -0.755750 -0.615368
v -0.184910 -0.841254 -0.508036
v -0.142080 -0.909632 -0.390362
v -0.096358 -0.959493 -0.264742
v -0.048674 -0.989821 -0.133732
v -0.024713 0.989821 -0.140153
v -0.048922 0.959493 -0.277452
v -0.072136 0.909632 -0.409104
v -0.093881 0.841254 -0.532427
v -0.113715 0.755750 -0.644912
v -0.131234 0.654861 -0.744268
v -0.146082 0.540641 -0.828472
v -0.157956 0.415415 -0.895812
v -0.166614 0.281733 -0.944915
v -0.171880 0.142315 -0.974783
v -0.173648 0.000000 -0.984807
v -0.171880 -0.142315 -0.974783
v -0.166614 -0.281733 -0.944915
v -0.157956 -0.415415 -0.895812
v -0.146082 -0.540641 -0.828472
v -0.131234 -0.654861 -0.744268
v -0.113715 -0.755750 -0.644912
v -0.093881 -0.841254 -0.532427
v -0.072136 -0.909632 -0.409104
v -0.048922 -0.959493 -0.277452
v -0.024713 -0.989821 -0.140153
v 0.000000 0.755750 -0.654860
v 0.000000 0.654861 -0.755749
v 0.000000 0.415415 -0.909631
v 0.000000 -0.540641 -0.841253
v 0.000000 -0.654861 -0.755749
v 0.000000 -0.755750 -0.654860
v 0.000000 -0.959493 -0.281732
v 0.000000 -0.989821 -0.142315
vn -0.0000 0.9893 -0.1462
vn -0.0000 0.9584 -0.2854
vn -0.0000 0.9081 -0.4187
vn -0.0000 0.8395 -0.5434
vn -0.0000 0.5388 -0.8424
vn -0.0000 0.2807 -0.9598
vn -0.0000 0.1418 -0.9899
vn -0.0000 -0.0000 -1.0000
vn -0.0000 -0.1418 -0.9899
vn -0.0000 -0.2807 -0.9598
vn -0.0000 -0.4139 -0.9103
vn -0.0000 -0.8395 -0.5434
vn -0.0000 -0.9081 -0.4187
vn 0.0254 0.9893 -0.1440
vn 0.0496 0.9584 -0.2810
vn 0.0727 0.9081 -0.4123
vn 0.0944 0.8395 -0.5352
vn 0.1141 0.7538 -0.6471
vn 0.1315 0.6529 -0.7459
vn 0.1463 0.5388 -0.8296
vn 0.1581 0.4139 -0.8965
vn 0.1667 0.2807 -0.9452
vn 0.1719 0.1418 -0.9749
vn 0.1736 -0.0000 -0.9848
vn 0.1719 -0.1418 -0.9749
vn 0.1667 -0.2807 -0.9452
vn 0.1581 -0.4139 -0.8965
vn 0.1463 -0.5388 -0.8296
vn 0.1315 -0.6529 -0.7459
vn 0.1141 -0.7538 -0.6471
vn 0.0944 -0.8395 -0.5352
vn 0.0727 -0.9081 -0.4123
vn 0.0496 -0.9584 -0.2810
vn 0.0254 -0.9893 -0.1440
vn 0.0500 0.9893 -0.1374
vn 0.0976 0.9584 -0.2682
vn 0.1432 0.9081 -0.3934
vn 0.1859 0.8395 -0.5107
vn 0.2247 0.7538 -0.6175
vn 0.2591 0.6529 -0.7118
vn 0.2881 0.5388 -0.7916
vn 0.3113 0.4139 -0.8554
vn 0.3283 0.2807 -0.9019
vn 0.3386 0.1418 -0.9302
vn 0.3420 -0.0000 -0.9397
vn 0.3386 -0.1418 -0.9302
vn 0.3283 -0.2807 -0.9019
vn 0.3113 -0.4139 -0.8554
vn 0.2881 -0.5388 -0.7916
vn 0.2591 -0.6529 -0.7118
vn 0.2247 -0.7538 -0.6175
vn 0.1859 -0.8395 -0.5107
vn 0.1432 -0.9081 -0.3934
vn 0.0976 -0.9584 -0.2682
vn 0.0500 -0.9893 -0.1374
vn 0.0731 0.9893 -0.1266
vn 0.1427 0.9584 -0.2471
vn 0.2093 0.9081 -0.3626
vn 0.2717 0.8395 -0.4706
vn 0.3286 0.7538 -0.5691
vn 0.3787 0.6529 -0.6560
vn 0.4212 0.5388 -0.7295
vn 0.4552 0.4139 -0.7884
vn 0.4799 0.2807 -0.8312
vn 0.4950 0.1418 -0.8573
vn 0.5000 -0.0000 -0.8660
vn 0.4950 -0.1418 -0.8573
vn 0.4799 -0.2807 -0.8312
vn 0.4552 -0.4139 -0.7884
vn 0.4212 -0.5388 -0.7295
vn 0.3787 -0.6529 -0.6560
vn 0.3286 -0.7538 -0.5691
vn 0.2717 -0.8395 -0.4706
vn 0.2093 -0.9081 -0.3626
vn 0.1427 -0.9584 -0.2471
vn 0.0731 -0.9893 -0.1266
vn 0.0940 0.9893 -0.1120
vn 0.1834 0.9584 -0.2186
vn 0.2691 0.9081 -0.3207
vn 0.3493 0.8395 -0.4163
vn 0.4224 0.7538 -0.5034
vn 0.4869 0.6529 -0.5802
vn 0.5415 0.5388 -0.6453
vn 0.5851 0.4139 -0.6973
vn 0.6170 0.2807 -0.7353
vn 0.6363 0.1418 -0.7583
vn 0.6428 -0.0000 -0.7660
vn 0.6363 -0.1418 -0.7583
vn 0.6170 -0.2807 -0.7353
vn 0.5851 -0.4139 -0.6973
vn 0.5415 -0.5388 -0.6453
vn 0.4869 -0.6529 -0.5802
vn 0.4224 -0.7538 -0.5034
vn 0.3493 -0.8395 -0.4163
vn 0.2691 -0.9081 -0.3207
vn 0.1834 -0.9584 -0.2186
vn 0.0940 -0.9893 -0.1120
vn 0.1120 0.9893 -0.0940
vn 0.2186 0.9584 -0.1834
vn 0.3207 0.9081 -0.2691
vn 0.4163 0.8395 -0.3493
vn 0.5034 0.7538 -0.4224
vn 0.5802 0.6529 -0.4869
vn 0.6453 0.5388 -0.5415
vn 0.6973 0.4139 -0.5851
vn 0.7353 0.2807 -0.6170
vn 0.7583 0.1418 -0.6363
vn 0.7660 -0.0000 -0.6428
vn 0.7583 -0.1418 -0.6363
vn 0.7353 -0.2807 -0.6170
vn 0.6973 -0.4139 -0.5851
vn 0.6453 -0.5388 -0.5415
vn 0.5802 -0.6529 -0.4869
vn 0.5034 -0.7538 -0.4224
vn 0.4163 -0.8395 -0.3493
vn 0.3207 -0.9081 -0.2691
vn 0.2186 -0.9584 -0.1834
vn 0.1120 -0.9893 -0.0940
vn -0.0000 1.0000 -0.0000
vn 0.1266 0.9893 -0.0731
vn 0.2471 0.9584 -0.1427
vn 0.3626 0.9081 -0.2093
vn 0.4706 0.8395 -0.2717
vn 0.5691 0.7538 -0.3286
vn 0.6560 0.6529 -0.3787
vn 0.7295 0.5388 -0.4212
vn 0.7884 0.4139 -0.4552
vn 0.8312 0.2807 -0.4799
vn 0.8573 0.1418 -0.4950
vn 0.8660 -0.0000 -0.5000
vn 0.8573 -0.1418 -0.4950
vn 0.8312 -0.2807 -0.4799
vn 0.7884 -0.4139 -0.4552
vn 0.7295 -0.5388 -0.4212
vn 0.6560 -0.6529 -0.3787
vn 0.5691 -0.7538 -0.3286
vn 0.4706 -0.8395 -0.2717
vn 0.3626 -0.9081 -0.2093
vn 0.2471 -0.9584 -0.1427
vn 0.1266 -0.9893 -0.0731
vn 0.1374 0.9893 -0.0500
vn 0.2682 0.9584 -0.0976
vn 0.3934 0.9081 -0.1432
vn 0.5107 0.8395 -0.1859
vn 0.6175 0.7538 -0.2247
vn 0.7118 0.6529 -0.2591
vn 0.7916 0.5388 -0.2881
vn 0.8554 0.4139 -0.3113
vn 0.9019 0.2807 -0.3283
vn 0.9302 0.1418 -0.3386
vn 0.9397 -0.0000 -0.3420
vn 0.9302 -0.1418 -0.3386
vn 0.9019 -0.2807 -0.3283
vn 0.8554 -0.4139 -0.3113
vn 0.7916 -0.5388 -0.2881
vn 0.7118 -0.6529 -0.2591
vn 0.6175 -0.7538 -0.2247
vn 0.5107 -0.8395 -0.1859
vn 0.3934 -0.9081 -0.1432
vn 0.2682 -0.9584 -0.0976
vn 0.1374 -0.9893 -0.0500
vn 0.1440 0.9893 -0.0254
vn 0.2810 0.9584 -0.0496
vn 0.4123 0.9081 -0.0727
vn 0.5352 0.8395 -0.0944
vn 0.6471 0.7538 -0.1141
vn 0.7459 0.6529 -0.1315
vn 0.8296 0.5388 -0.1463
vn 0.8965 0.4139 -0.1581
vn 0.9452 0.2807 -0.1667
vn 0.9749 0.1418 -0.1719
vn 0.9848 -0.0000 -0.1736
vn 0.9749 -0.1418 -0.1719
vn 0.9452 -0.2807 -0.1667
vn 0.8965 -0.4139 -0.1581
vn 0.8296 -0.5388 -0.1463
vn 0.7459 -0.6529 -0.1315
vn 0.6471 -0.7538 -0.1141
vn 0.5352 -0.8395 -0.0944
vn 0.4123 -0.9081 -0.0727
vn 0.2810 -0.9584 -0.0496
vn 0.1440 -0.9893 -0.0254
vn -0.0000 -1.0000 -0.0000
vn 0.1462 0.9893 -0.0000
vn 0.2854 0.9584 -0.0000
vn 0.4187 0.9081 -0.0000
vn 0.5434 0.8395 -0.0000
vn 0.6571 0.7538 -0.0000
vn 0.7574 0.6529 -0.0000
vn 0.8424 0.5388 -0.0000
vn 0.9103 0.4139 -0.0000
vn 0.9598 0.2807 -0.0000
vn 0.9899 0.1418 -0.0000
vn 1.0000 -0.0000 -0.0000
vn 0.9899 -0.1418 -0.0000
vn 0.9598 -0.2807 -0.0000
vn 0.9103 -0.4139 -0.0000
vn 0.8424 -0.5388 -0.0000
vn 0.7574 -0.6529 -0.0000
vn 0.6571 -0.7538 -0.0000
vn 0.5434 -0.8395 -0.0000
vn 0.4187 -0.9081 -0.0000
vn 0.2854 -0.9584 -0.0000
vn 0.1462 -0.9893 -0.0000
vn 0.1440 0.9893 0.0254
vn 0.2810 0.9584 0.0496
vn 0.4123 0.9081 0.0727
vn 0.5352 0.8395 0.0944
vn 0.6471 0.7538 0.1141
vn 0.7459 0.6529 0.1315
vn 0.8296 0.5388 0.1463
vn 0.8965 0.4139 0.1581
vn 0.9452 0.2807 0.1667
vn 0.9749 0.1418 0.1719
vn 0.9848 -0.0000 0.1736
vn 0.9749 -0.1418 0.1719
vn 0.9452 -0.2807 0.1667
vn 0.8965 -0.4139 0.1581
vn 0.8296 -0.5388 0.1463
vn 0.7459 -0.6529 0.1315
vn 0.6471 -0.7538 0.1141
vn 0.5352 -0.8395 0.0944
vn 0.4123 -0.9081 0.0727
vn 0.2810 -0.9584 0.0496
vn 0.1440 -0.9893 0.0254
vn 0.1374 0.9893 0.0500
vn 0.2682 0.9584 0.0976
vn 0.3934 0.9081 0.1432
vn 0.5107 0.8395 0.1859
vn 0.6175 0.7538 0.2247
vn 0.7118 0.6529 0.2591
vn 0.7916 0.5388 0.2881
vn 0.8554 0.4139 0.3113
vn 0.9019 0.2807 0.3283
vn 0.9302 0.1418 0.3386
vn 0.9397 -0.0000 0.3420
vn 0.9302 -0.1418 0.3386
vn 0.9019 -0.2807 0.3283
vn 0.8554 -0.4139 0.3113
vn 0.7916 -0.5388 0.2881
vn 0.7118 -0.6529 0.2591
vn 0.6175 -0.7538 0.2247
vn 0.5107 -0.8395 0.1859
vn 0.3934 -0.9081 0.1432
vn 0.2682 -0.9584 0.0976
vn 0.1374 -0.9893 0.0500
vn 0.1266 0.9893 0.0731
vn 0.2471 0.9584 0.1427
vn 0.3626 0.9081 0.2093
vn 0.4706 0.8395 0.2717
vn 0.5691 0.7538 0.3286
vn 0.6560 0.6529 0.3787
vn 0.7295 0.5388 0.4212
vn 0.7884 0.4139 0.4552
vn 0.8312 0.2807 0.4799
vn 0.8573 0.1418 0.4950
vn 0.8660 -0.0000 0.5000
vn 0.8573 -0.1418 0.4950
vn 0.8312 -0.2807 0.4799
vn 0.7884 -0.4139 0.4552
vn 0.7295 -0.5388 0.4212
vn 0.6560 -0.6529 0.3787
vn 0.5691 -0.7538 0.3286
vn 0.4706 -0.8395 0.2717
vn 0.3626 -0.9081 0.2093
vn 0.2471 -0.9584 0.1427
vn 0.1266 -0.9893 0.0731
vn 0.1120 0.9893 0.0940
vn 0.2186 0.9584 0.1834
vn 0.3207 0.9081 0.2691
vn 0.4163 0.8395 0.3493
vn 0.5034 0.7538 0.4224
vn 0.5802 0.6529 0.4869
vn 0.6453 0.5388 0.5415
vn 0.6973 0.4139 0.5851
vn 0.7353 0.2807 0.6170
vn 0.7583 0.1418 0.6363
vn 0.7660 -0.0000 0.6428
vn 0.7583 -0.1418 0.6363
vn 0.7353 -0.2807 0.6170
vn 0.6973 -0.4139 0.5851
vn 0.6453 -0.5388 0.5415
vn 0.5802 -0.6529 0.4869
vn 0.5034 -0.7538 0.4224
vn 0.4163 -0.8395 0.3493
vn 0.3207 -0.9081 0.2691
vn 0.2186 -0.9584 0.1834
vn 0.1120 -0.9893 0.0940
vn 0.0940 0.9893 0.1120
vn 0.1834 0.9584 0.2186
vn 0.2691 0.9081 0.3207
vn 0.3493 0.8395 0.4163
vn 0.4224 0.7538 0.5034
vn 0.4869 0.6529 0.5802
vn 0.5415 0.5388 0.6453
vn 0.5851 0.4139 0.6973
vn 0.6170 0.2807 0.7353
vn 0.6363 0.1418 0.7583
vn 0.6428 -0.0000 0.7660
vn 0.6363 -0.1418 0.7583
vn 0.6170 -0.2807 0.7353
vn 0.5851 -0.4139 0.6973
vn 0.5415 -0.5388 0.6453
vn 0.4869 -0.6529 0.5802
vn 0.4224 -0.7538 0.5034
vn 0.3493 -0.8395 0.4163
vn 0.2691 -0.9081 0.3207
vn 0.1834 -0.9584 0.2186
vn 0.0940 -0.9893 0.1120
vn 0.0731 0.9893 0.1266
vn 0.1427 0.9584 0.2471
vn 0.2093 0.9081 0.3626
vn 0.2717 0.8395 0.4706
vn 0.3286 0.7538 0.5691
vn 0.3787 0.6529 0.6560
vn 0.4212 0.5388 0.7295
vn 0.4552 0.4139 0.7884
vn 0.4799 0.2807 0.8312
vn 0.4950 0.1418 0.8573
vn 0.5000 -0.0000 0.8660
vn 0.4950 -0.1418 0.8573
vn 0.4799 -0.2807 0.8312
vn 0.4552 -0.4139 0.7884
vn 0.4212 -0.5388 0.7295
vn 0.3787 -0.6529 0.6560
vn 0.3286 -0.7538 0.5691
vn 0.2717 -0.8395 0.4706
vn 0.2093 -0.9081 0.3626
vn 0.1427 -0.9584 0.2471
vn 0.0731 -0.9893 0.1266
vn 0.0500 0.9893 0.1374
vn 0.0976 0.9584 0.2682
vn 0.1432 0.9081 0.3934
vn 0.1859 0.8395 0.5107
vn 0.2247 0.7538 0.6175
vn 0.2591 0.6529 0.7118
vn 0.2881 0.5388 0.7916
vn 0.3113 0.4139 0.8554
vn 0.3283 0.2807 0.9019
vn 0.3386 0.1418 0.9302
vn 0.3420 -0.0000 0.9397
vn 0.3386 -0.1418 0.9302
vn 0.3283 -0.2807 0.9019
vn 0.3113 -0.4139 0.8554
vn 0.2881 -0.5388 0.7916
vn 0.2591 -0.6529 0.7118
vn 0.2247 -0.7538 0.6175
vn 0.1859 -0.8395 0.5107
vn 0.1432 -0.9081 0.3934
vn 0.0976 -0.9584 0.2682
vn 0.0500 -0.9893 0.1374
vn 0.0254 0.9893 0.1440
vn 0.0496 0.9584 0.2810
vn 0.0727 0.9081 0.4123
vn 0.0944 0.8395 0.5352
vn 0.1141 0.7538 0.6471
vn 0.1315 0.6529 0.7459
vn 0.1463 0.5388 0.8296
vn 0.1581 0.4139 0.8965
vn 0.1667 0.2807 0.9452
vn 0.1719 0.1418 0.9749
vn 0.1736 -0.0000 0.9848
vn 0.1719 -0.1418 0.9749
vn 0.1667 -0.2807 0.9452
vn 0.1581 -0.4139 0.8965
vn 0.1463 -0.5388 0.8296
vn 0.1315 -0.6529 0.7459
vn 0.1141 -0.7538 0.6471
vn 0.0944 -0.8395 0.5352
vn 0.0727 -0.9081 0.4123
vn 0.0496 -0.9584 0.2810
vn 0.0254 -0.9893 0.1440
vn -0.0000 0.9893 0.1462
vn -0.0000 0.9584 0.2854
vn -0.0000 0.9081 0.4187
vn -0.0000 0.8395 0.5434
vn -0.0000 0.7538 0.6571
vn -0.0000 0.6529 0.7574
vn -0.0000 0.5388 0.8424
vn -0.0000 0.4139 0.9103
vn -0.0000 0.2807 0.9598
vn -0.0000 0.1418 0.9899
vn -0.0000 -0.0000 1.0000
vn -0.0000 -0.1418 0.9899
vn -0.0000 -0.2807 0.9598
vn -0.0000 -0.4139 0.9103
vn -0.0000 -0.5388 0.8424
vn -0.0000 -0.6529 0.7574
vn -0.0000 -0.7538 0.6571
vn -0.0000 -0.8395 0.5434
vn -0.0000 -0.9081 0.4187
vn -0.0000 -0.9584 0.2854
vn -0.0000 -0.9893 0.1462
vn -0.0254 0.9893 0.1440
vn -0.0496 0.9584 0.2810
vn -0.0727 0.9081 0.4123
vn -0.0944 0.8395 0.5352
vn -0.1141 0.7538 0.6471
vn -0.1315 0.6529 0.7459
vn -0.1463 0.5388 0.8296
vn -0.1581 0.4139 0.8965
vn -0.1667 0.2807 0.9452
vn -0.1719 0.1418 0.9749
vn -0.1736 -0.0000 0.9848
vn -0.1719 -0.1418 0.9749
vn -0.1667 -0.2807 0.9452
vn -0.1581 -0.4139 0.8965
vn -0.1463 -0.5388 0.8296
vn -0.1315 -0.6529 0.7459
vn -0.1141 -0.7538 0.6471
vn -0.0944 -0.8395 0.5352
vn -0.0727 -0.9081 0.4123
vn -0.0496 -0.9584 0.2810
vn -0.0254 -0.9893 0.1440
vn -0.0500 0.9893 0.1374
vn -0.0976 0.9584 0.2682
vn -0.1432 0.9081 0.3934
vn -0.1859 0.8395 0.5107
vn -0.2247 0.7538 0.6175
vn -0.2591 0.6529 0.7118
vn -0.2881 0.5388 0.7916
vn -0.3113 0.4139 0.8554
vn -0.3283 0.2807 0.9019
vn -0.3386 0.1418 0.9302
vn -0.3420 -0.0000 0.9397
vn -0.3386 -0.1418 0.9302
vn -0.3283 -0.2807 0.9019
vn -0.3113 -0.4139 0.8554
vn -0.2881 -0.5388 0.7916
vn -0.2591 -0.6529 0.7118
vn -0.2247 -0.7538 0.6175
vn -0.1859 -0.8395 0.5107
vn -0.1432 -0.9081 0.3934
vn -0.0976 -0.9584 0.2682
vn -0.0500 -0.9893 0.1374
vn -0.0731 0.9893 0.1266
vn -0.1427 0.9584 0.2471
vn -0.2093 0.9081 0.3626
vn -0.2717 0.8395 0.4706
vn -0.3286 0.7538 0.5691
vn -0.3787 0.6529 0.6560
vn -0.4212 0.5388 0.7295
vn -0.4552 0.4139 0.7884
vn -0.4799 0.2807 0.8312
vn -0.4950 0.1418 0.8573
vn -0.5000 -0.0000 0.8660
vn -0.4950 -0.1418 0.8573
vn -0.4799 -0.2807 0.8312
vn -0.4552 -0.4139 0.7884
vn -0.4212 -0.5388 0.7295
vn -0.3787 -0.6529 0.6560
vn -0.3286 -0.7538 0.5691
vn -0.2717 -0.8395 0.4706
vn -0.2093 -0.9081 0.3626
vn -0.1427 -0.9584 0.2471
vn -0.0731 -0.9893 0.1266
vn -0.0940 0.9893 0.1120
vn -0.1834 0.9584 0.2186
vn -0.2691 0.9081 0.3207
vn -0.3493 0.8395 0.4163
vn -0.4224 0.7538 0.5034
vn -0.4869 0.6529 0.5802
vn -0.5415 0.5388 0.6453
vn -0.5851 0.4139 0.6973
vn -0.6170 0.2807 0.7353
vn -0.6363 0.1418 0.7583
vn -0.6428 -0.0000 0.7660
vn -0.6363 -0.1418 0.7583
vn -0.6170 -0.2807 0.7353
vn -0.5851 -0.4139 0.6973
vn -0.5415 -0.5388 0.6453
vn -0.4869 -0.6529 0.5802
vn -0.4224 -0.7538 0.5034
vn -0.3493 -0.8395 0.4163
vn -0.2691 -0.9081 0.3207
vn -0.1834 -0.9584 0.2186
vn -0.0940 -0.9893 0.1120
vn -0.1120 0.9893 0.0940
vn -0.2186 0.9584 0.1834
vn -0.3207 0.9081 0.2691
vn -0.4163 0.8395 0.3493
vn -0.5034 0.7538 0.4224
vn -0.5802 0.6529 0.4869
vn -0.6453 0.5388 0.5415
vn -0.6973 0.4139 0.5851
vn -0.7353 0.2807 0.6170
vn -0.7583 0.1418 0.6363
vn -0.7660 -0.0000 0.6428
vn -0.7583 -0.1418 0.6363
vn -0.7353 -0.2807 0.6170
vn -0.6973 -0.4139 0.5851
vn -0.6453 -0.5388 0.5415
vn -0.5802 -0.6529 0.4869
vn -0.5034 -0.7538 0.4224
vn -0.4163 -0.8395 0.3493
vn -0.3207 -0.9081 0.2691
vn -0.2186 -0.9584 0.1834
vn -0.1120 -0.9893 0.0940
vn -0.1266 0.9893 0.0731
vn -0.2471 0.9584 0.1427
vn -0.3626 0.9081 0.2093
vn -0.4706 0.8395 0.2717
vn -0.5691 0.7538 0.3286
vn -0.6560 0.6529 0.3787
vn -0.7295 0.5388 0.4212
vn -0.7884 0.4139 0.4552
vn -0.8312 0.2807 0.4799
vn -0.8573 0.1418 0.4950
vn -0.8660 -0.0000 0.5000
vn -0.8573 -0.1418 0.4950
vn -0.8312 -0.2807 0.4799
vn -0.7884 -0.4139 0.4552
vn -0.7295 -0.5388 0.4212
vn -0.6560 -0.6529 0.3787
vn -0.5691 -0.7538 0.3286
vn -0.4706 -0.8395 0.2717
vn -0.3626 -0.9081 0.2093
vn -0.2471 -0.9584 0.1427
vn -0.1266 -0.9893 0.0731
vn -0.1374 0.9893 0.0500
vn -0.2682 0.9584 0.0976
vn -0.3934 0.9081 0.1432
vn -0.5107 0.8395 0.1859
vn -0.6175 0.7538 0.2247
vn -0.7118 0.6529 0.2591
vn -0.7916 0.5388 0.2881
vn -0.8554 0.4139 0.3113
vn -0.9019 0.2807 0.3283
vn -0.9302 0.1418 0.3386
vn -0.9397 -0.0000 0.3420
vn -0.9302 -0.1418 0.3386
vn -0.9019 -0.2807 0.3283
vn -0.8554 -0.4139 0.3113
vn -0.7916 -0.5388 0.2881
vn -0.7118 -0.6529 0.2591
vn -0.6175 -0.7538 0.2247
vn -0.5107 -0.8395 0.1859
vn -0.3934 -0.9081 0.1432
vn -0.2682 -0.9584 0.0976
vn -0.1374 -0.9893 0.0500
vn -0.1440 0.9893 0.0254
vn -0.2810 0.9584 0.0496
vn -0.4123 0.9081 0.0727
vn -0.5352 0.8395 0.0944
vn -0.6471 0.7538 0.1141
vn -0.7459 0.6529 0.1315
vn -0.8296 0.5388 0.1463
vn -0.8965 0.4139 0.1581
vn -0.9452 0.2807 0.1667
vn -0.9749 0.1418 0.1719
vn -0.9848 -0.0000 0.1736
vn -0.9749 -0.1418 0.1719
vn -0.9452 -0.2807 0.1667
vn -0.8965 -0.4139 0.1581
vn -0.8296 -0.5388 0.1463
vn -0.7459 -0.6529 0.1315
vn -0.6471 -0.7538 0.1141
vn -0.5352 -0.8395 0.0944
vn -0.4123 -0.9081 0.0727
vn -0.2810 -0.9584 0.0496
vn -0.1440 -0.9893 0.0254
vn -0.1462 0.9893 -0.0000
vn -0.2854 0.9584 -0.0000
vn -0.4187 0.9081 -0.0000
vn -0.5434 0.8395 -0.0000
vn -0.6571 0.7538 -0.0000
vn -0.7574 0.6529 -0.0000
vn -0.8424 0.5388 -0.0000
vn -0.9103 0.4139 -0.0000
vn -0.9598 0.2807 -0.0000
vn -0.9899 0.1418 -0.0000
vn -1.0000 -0.0000 -0.0000
vn -0.9899 -0.1418 -0.0000
vn -0.9598 -0.2807 -0.0000
vn -0.9103 -0.4139 -0.0000
vn -0.8424 -0.5388 -0.0000
vn -0.7574 -0.6529 -0.0000
vn -0.6571 -0.7538 -0.0000
vn -0.5434 -0.8395 -0.0000
vn -0.4187 -0.9081 -0.0000
vn -0.2854 -0.9584 -0.0000
vn -0.1462 -0.9893 -0.0000
vn -0.1440 0.9893 -0.0254
vn -0.2810 0.9584 -0.0496
vn -0.4123 0.9081 -0.0727
vn -0.5352 0.8395 -0.0944
vn -0.6471 0.7538 -0.1141
vn -0.7459 0.6529 -0.1315
vn -0.8296 0.5388 -0.1463
vn -0.8965 0.4139 -0.1581
vn -0.9452 0.2807 -0.1667
vn -0.9749 0.1418 -0.1719
vn -0.9848 -0.0000 -0.1736
vn -0.9749 -0.1418 -0.1719
vn -0.9452 -0.2807 -0.1667
vn -0.8965 -0.4139 -0.1581
vn -0.8296 -0.5388 -0.1463
vn -0.7459 -0.6529 -0.1315
vn -0.6471 -0.7538 -0.1141
vn -0.5352 -0.8395 -0.0944
vn -0.4123 -0.9081 -0.0727
vn -0.2810 -0.9584 -0.0496
vn -0.1440 -0.9893 -0.0254
vn -0.1374 0.9893 -0.0500
vn -0.2682 0.9584 -0.0976
vn -0.3934 0.9081 -0.1432
vn -0.5107 0.8395 -0.1859
vn -0.6175 0.7538 -0.2247
vn -0.7118 0.6529 -0.2591
vn -0.7916 0.5388 -0.2881
vn -0.8554 0.4139 -0.3113
vn -0.9019 0.2807 -0.3283
vn -0.9302 0.1418 -0.3386
vn -0.9397 -0.0000 -0.3420
vn -0.9302 -0.1418 -0.3386
vn -0.9019 -0.2807 -0.3283
vn -0.8554 -0.4139 -0.3113
vn -0.7916 -0.5388 -0.2881
vn -0.7118 -0.6529 -0.2591
vn -0.6175 -0.7538 -0.2247
vn -0.5107 -0.8395 -0.1859
vn -0.3934 -0.9081 -0.1432
vn -0.2682 -0.9584 -0.0976
vn -0.1374 -0.9893 -0.0500
vn -0.1266 0.9893 -0.0731
vn -0.2471 0.9584 -0.1427
vn -0.3626 0.9081 -0.2093
vn -0.4706 0.8395 -0.2717
vn -0.5691 0.7538 -0.3286
vn -0.6560 0.6529 -0.3787
vn -0.7295 0.5388 -0.4212
vn -0.7884 0.4139 -0.4552
vn -0.8312 0.2807 -0.4799
vn -0.8573 0.1418 -0.4950
vn -0.8660 -0.0000 -0.5000
vn -0.8573 -0.1418 -0.4950
vn -0.8312 -0.2807 -0.4799
vn -0.7884 -0.4139 -0.4552
vn -0.7295 -0.5388 -0.4212
vn -0.6560 -0.6529 -0.3787
vn -0.5691 -0.7538 -0.3286
vn -0.4706 -0.8395 -0.2717
vn -0.3626 -0.9081 -0.2093
vn -0.2471 -0.9584 -0.1427
vn -0.1266 -0.9893 -0.0731
vn -0.1120 0.9893 -0.0940
vn -0.2186 0.9584 -0.1834
vn -0.3207 0.9081 -0.2691
vn -0.4163 0.8395 -0.3493
vn -0.5034 0.7538 -0.4224
vn -0.5802 0.6529 -0.4869
vn -0.6453 0.5388 -0.5415
vn -0.6973 0.4139 -0.5851
vn -0.7353 0.2807 -0.6170
vn -0.7583 0.1418 -0.6363
vn -0.7660 -0.0000 -0.6428
vn -0.7583 -0.1418 -0.6363
vn -0.7353 -0.2807 -0.6170
vn -0.6973 -0.4139 -0.5851
vn -0.6453 -0.5388 -0.5415
vn -0.5802 -0.6529 -0.4869
vn -0.5034 -0.7538 -0.4224
vn -0.4163 -0.8395 -0.3493
vn -0.3207 -0.9081 -0.2691
vn -0.2186 -0.9584 -0.1834
vn -0.1120 -0.9893 -0.0940
vn -0.0940 0.9893 -0.1120
vn -0.1834 0.9584 -0.2186
vn -0.2691 0.9081 -0.3207
vn -0.3493 0.8395 -0.4163
vn -0.4224 0.7538 -0.5034
vn -0.4869 0.6529 -0.5802
vn -0.5415 0.5388 -0.6453
vn -0.5851 0.4139 -0.6973
vn -0.6170 0.2807 -0.7353
vn -0.6363 0.1418 -0.7583
vn -0.6428 -0.0000 -0.7660
vn -0.6363 -0.1418 -0.7583
vn -0.6170 -0.2807 -0.7353
vn -0.5851 -0.4139 -0.6973
vn -0.5415 -0.5388 -0.6453
vn -0.4869 -0.6529 -0.5802
vn -0.4224 -0.7538 -0.5034
vn -0.3493 -0.8395 -0.4163
vn -0.2691 -0.9081 -0.3207
vn -0.1834 -0.9584 -0.2186
vn -0.0940 -0.9893 -0.1120
vn -0.0731 0.9893 -0.1266
vn -0.1427 0.9584 -0.2471
vn -0.2093 0.9081 -0.3626
vn -0.2717 0.8395 -0.4706
vn -0.3286 0.7538 -0.5691
vn -0.3787 0.6529 -0.6560
vn -0.4212 0.5388 -0.7295
vn -0.4552 0.4139 -0.7884
vn -0.4799 0.2807 -0.8312
vn -0.4950 0.1418 -0.8573
vn -0.5000 -0.0000 -0.8660
vn -0.4950 -0.1418 -0.8573
vn -0.4799 -0.2807 -0.8312
vn -0.4552 -0.4139 -0.7884
vn -0.4212 -0.5388 -0.7295
vn -0.3787 -0.6529 -0.6560
vn -0.3286 -0.7538 -0.5691
vn -0.2717 -0.8395 -0.4706
vn -0.2093 -0.9081 -0.3626
vn -0.1427 -0.9584 -0.2471
vn -0.0731 -0.9893 -0.1266
vn -0.0500 0.9893 -0.1374
vn -0.0976 0.9584 -0.2682
vn -0.1432 0.9081 -0.3934
vn -0.1859 0.8395 -0.5107
vn -0.2247 0.7538 -0.6175
vn -0.2591 0.6529 -0.7118
vn -0.2881 0.5388 -0.7916
vn -0.3113 0.4139 -0.8554
vn -0.3283 0.2807 -0.9019
vn -0.3386 0.1418 -0.9302
vn -0.3420 -0.0000 -0.9397
vn -0.3386 -0.1418 -0.9302
vn -0.3283 -0.2807 -0.9019
vn -0.3113 -0.4139 -0.8554
vn -0.2881 -0.5388 -0.7916
vn -0.2591 -0.6529 -0.7118
vn -0.2247 -0.7538 -0.6175
vn -0.1859 -0.8395 -0.5107
vn -0.1432 -0.9081 -0.3934
vn -0.0976 -0.9584 -0.2682
vn -0.0500 -0.9893 -0.1374
vn -0.0254 0.9893 -0.1440
vn -0.0496 0.9584 -0.2810
vn -0.0727 0.9081 -0.4123
vn -0.0944 0.8395 -0.5352
vn -0.1141 0.7538 -0.6471
vn -0.1315 0.6529 -0.7459
vn -0.1463 0.5388 -0.8296
vn -0.1581 0.4139 -0.8965
vn -0.1667 0.2807 -0.9452
vn -0.1719 0.1418 -0.9749
vn -0.1737 -0.0000 -0.9848
vn -0.1719 -0.1418 -0.9749
vn -0.1667 -0.2807 -0.9452
vn -0.1581 -0.4139 -0.8965
vn -0.1463 -0.5388 -0.8296
vn -0.1315 -0.6529 -0.7459
vn -0.1141 -0.7538 -0.6471
vn -0.0944 -0.8395 -0.5352
vn -0.0727 -0.9081 -0.4123
vn -0.0496 -0.9584 -0.2810
vn -0.0254 -0.9893 -0.1440
vn -0.0000 0.7538 -0.6571
vn -0.0000 0.6529 -0.7574
vn -0.0000 0.4139 -0.9103
vn -0.0000 -0.5388 -0.8424
vn -0.0000 -0.6529 -0.7574
vn -0.0000 -0.7538 -0.6571
vn -0.0000 -0.9584 -0.2854
vn -0.0000 -0.9893 -0.1462
vt 0.750000 0.500000
vt 0.750000 0.545455
vt 0.722222 0.545455
vt 0.722222 0.500000
vt 0.750000 0.818182
vt 0.750000 0.863636
vt 0.722222 0.863636
vt 0.722222 0.818182
vt 0.750000 0.136364
vt 0.750000 0.181818
vt 0.722222 0.181818
vt 0.722222 0.136364
vt 0.750000 0.454545
vt 0.722222 0.454545
vt 0.750000 0.772727
vt 0.722222 0.772727
vt 0.750000 0.090909
vt 0.722222 0.090909
vt 0.750000 0.409091
vt 0.722222 0.409091
vt 0.750000 0.727273
vt 0.722222 0.727273
vt 0.750000 0.045454
vt 0.722222 0.045455
vt 0.750000 0.363636
vt 0.722222 0.363636
vt 0.750000 0.681818
vt 0.722222 0.681818
vt 0.736111 0.000000
vt 0.750000 0.318182
vt 0.722222 0.318182
vt 0.750000 0.636364
vt 0.722222 0.636364
vt 0.750000 0.954545
vt 0.736111 1.000000
vt 0.722222 0.954545
vt 0.750000 0.272727
vt 0.722222 0.272727
vt 0.750000 0.590909
vt 0.722222 0.590909
vt 0.750000 0.909091
vt 0.722222 0.909091
vt 0.750000 0.227273
vt 0.722222 0.227273
vt 0.694444 0.863636
vt 0.694444 0.818182
vt 0.694444 0.181818
vt 0.694444 0.136364
vt 0.694444 0.500000
vt 0.694444 0.454545
vt 0.694444 0.772727
vt 0.694444 0.090909
vt 0.694444 0.409091
vt 0.694444 0.727273
vt 0.694444 0.045455
vt 0.694444 0.363636
vt 0.694444 0.681818
vt 0.708333 0.000000
vt 0.694444 0.318182
vt 0.694444 0.636364
vt 0.708333 1.000000
vt 0.694444 0.954545
vt 0.694444 0.272727
vt 0.694444 0.590909
vt 0.694444 0.909091
vt 0.694444 0.227273
vt 0.694444 0.545455
vt 0.666667 0.227273
vt 0.666667 0.181818
vt 0.666667 0.545455
vt 0.666667 0.500000
vt 0.666667 0.863636
vt 0.666667 0.818182
vt 0.666667 0.136364
vt 0.666667 0.454545
vt 0.666667 0.772727
vt 0.666667 0.090909
vt 0.666667 0.409091
vt 0.666667 0.727273
vt 0.666667 0.045455
vt 0.666667 0.363636
vt 0.666667 0.681818
vt 0.680556 0.000000
vt 0.666667 0.318182
vt 0.666667 0.636364
vt 0.680556 1.000000
vt 0.666667 0.954545
vt 0.666667 0.272727
vt 0.666667 0.590909
vt 0.666667 0.909091
vt 0.638889 0.590909
vt 0.638889 0.545455
vt 0.638889 0.909091
vt 0.638889 0.863636
vt 0.638889 0.227273
vt 0.638889 0.181818
vt 0.638889 0.500000
vt 0.638889 0.818182
vt 0.638889 0.136364
vt 0.638889 0.454545
vt 0.638889 0.772727
vt 0.638889 0.090909
vt 0.638889 0.409091
vt 0.638889 0.727273
vt 0.638889 0.045455
vt 0.638889 0.363636
vt 0.638889 0.681818
vt 0.652778 0.000000
vt 0.638889 0.318182
vt 0.638889 0.636364
vt 0.652778 1.000000
vt 0.638889 0.954545
vt 0.638889 0.272727
vt 0.611111 0.954545
vt 0.611111 0.909091
vt 0.611111 0.272727
vt 0.611111 0.227273
vt 0.611111 0.590909
vt 0.611111 0.545455
vt 0.611111 0.863636
vt 0.611111 0.181818
vt 0.611111 0.500000
vt 0.611111 0.818182
vt 0.611111 0.136364
vt 0.611111 0.454545
vt 0.611111 0.772727
vt 0.611111 0.090909
vt 0.611111 0.409091
vt 0.611111 0.727273
vt 0.611111 0.045455
vt 0.611111 0.363636
vt 0.611111 0.681818
vt 0.625000 0.000000
vt 0.611111 0.318182
vt 0.611111 0.636364
vt 0.625000 1.000000
vt 0.583333 0.636364
vt 0.583333 0.590909
vt 0.583333 0.954545
vt 0.583333 0.909091
vt 0.583333 0.272727
vt 0.583333 0.227273
vt 0.583333 0.545455
vt 0.583333 0.863636
vt 0.583333 0.181818
vt 0.583333 0.500000
vt 0.583333 0.818182
vt 0.583333 0.136364
vt 0.583333 0.454545
vt 0.583333 0.772727
vt 0.583333 0.090909
vt 0.583333 0.409091
vt 0.583333 0.727273
vt 0.583333 0.045455
vt 0.583333 0.363636
vt 0.583333 0.681818
vt 0.597222 0.000000
vt 0.583333 0.318182
vt 0.597222 1.000000
vt 0.569444 1.000000
vt 0.555556 0.954545
vt 0.555556 0.318182
vt 0.555556 0.272727
vt 0.555556 0.636364
vt 0.555556 0.590909
vt 0.555556 0.909091
vt 0.555556 0.227273
vt 0.555556 0.545455
vt 0.555556 0.863636
vt 0.555556 0.181818
vt 0.555556 0.500000
vt 0.555556 0.818182
vt 0.555556 0.136364
vt 0.555556 0.454545
vt 0.555556 0.772727
vt 0.555556 0.090909
vt 0.555556 0.409091
vt 0.555556 0.727273
vt 0.555556 0.045455
vt 0.555556 0.363636
vt 0.555556 0.681818
vt 0.569444 0.000000
vt 0.527778 0.363636
vt 0.527778 0.318182
vt 0.527778 0.681818
vt 0.527778 0.636364
vt 0.541667 1.000000
vt 0.527778 0.954545
vt 0.527778 0.272727
vt 0.527778 0.590909
vt 0.527778 0.909091
vt 0.527778 0.227273
vt 0.527778 0.545455
vt 0.527778 0.863636
vt 0.527778 0.181818
vt 0.527778 0.500000
vt 0.527778 0.818182
vt 0.527778 0.136364
vt 0.527778 0.454545
vt 0.527778 0.772727
vt 0.527778 0.090909
vt 0.527778 0.409091
vt 0.527778 0.727273
vt 0.527778 0.045455
vt 0.541667 0.000000
vt 0.500000 0.727273
vt 0.500000 0.681818
vt 0.513889 0.000000
vt 0.500000 0.045455
vt 0.500000 0.363636
vt 0.500000 0.318182
vt 0.500000 0.636364
vt 0.513889 1.000000
vt 0.500000 0.954545
vt 0.500000 0.272727
vt 0.500000 0.590909
vt 0.500000 0.909091
vt 0.500000 0.227273
vt 0.500000 0.545455
vt 0.500000 0.863636
vt 0.500000 0.181818
vt 0.500000 0.500000
vt 0.500000 0.818182
vt 0.500000 0.136364
vt 0.500000 0.454545
vt 0.500000 0.772727
vt 0.500000 0.090909
vt 0.500000 0.409091
vt 0.472222 0.409091
vt 0.472222 0.363636
vt 0.472222 0.727273
vt 0.472222 0.681818
vt 0.486111 0.000000
vt 0.472222 0.045454
vt 0.472222 0.318182
vt 0.472222 0.636364
vt 0.486111 1.000000
vt 0.472222 0.954546
vt 0.472222 0.272727
vt 0.472222 0.590909
vt 0.472222 0.909091
vt 0.472222 0.227273
vt 0.472222 0.545455
vt 0.472222 0.863636
vt 0.472222 0.181818
vt 0.472222 0.500000
vt 0.472222 0.818182
vt 0.472222 0.136364
vt 0.472222 0.454545
vt 0.472222 0.772727
vt 0.472222 0.090909
vt 0.444444 0.772727
vt 0.444444 0.727273
vt 0.444444 0.090909
vt 0.444444 0.045454
vt 0.444444 0.409091
vt 0.444444 0.363636
vt 0.444444 0.681818
vt 0.458333 0.000000
vt 0.444444 0.318182
vt 0.444444 0.636364
vt 0.458333 1.000000
vt 0.444444 0.954546
vt 0.444444 0.272727
vt 0.444444 0.590909
vt 0.444444 0.909091
vt 0.444444 0.227273
vt 0.444444 0.545455
vt 0.444444 0.863636
vt 0.444444 0.181818
vt 0.444444 0.500000
vt 0.444444 0.818182
vt 0.444444 0.136364
vt 0.444444 0.454545
vt 0.416667 0.136364
vt 0.416667 0.090909
vt 0.416667 0.454545
vt 0.416667 0.409091
vt 0.416667 0.772727
vt 0.416667 0.727273
vt 0.416667 0.045454
vt 0.416667 0.363636
vt 0.416667 0.681818
vt 0.430556 0.000000
vt 0.416667 0.318182
vt 0.416667 0.636364
vt 0.430556 1.000000
vt 0.416667 0.954546
vt 0.416667 0.272727
vt 0.416667 0.590909
vt 0.416667 0.909091
vt 0.416667 0.227273
vt 0.416667 0.545455
vt 0.416667 0.863636
vt 0.416667 0.181818
vt 0.416667 0.500000
vt 0.416667 0.818182
vt 0.388889 0.500000
vt 0.388889 0.454545
vt 0.388889 0.818182
vt 0.388889 0.772727
vt 0.388889 0.136364
vt 0.388889 0.090909
vt 0.388889 0.409091
vt 0.388889 0.727273
vt 0.388889 0.045454
vt 0.388889 0.363636
vt 0.388889 0.681818
vt 0.402778 0.000000
vt 0.388889 0.318182
vt 0.388889 0.636364
vt 0.402778 1.000000
vt 0.388889 0.954546
vt 0.388889 0.272727
vt 0.388889 0.590909
vt 0.388889 0.909091
vt 0.388889 0.227273
vt 0.388889 0.545455
vt 0.388889 0.863636
vt 0.388889 0.181818
vt 0.361111 0.863636
vt 0.361111 0.818182
vt 0.361111 0.181818
vt 0.361111 0.136364
vt 0.361111 0.500000
vt 0.361111 0.454545
vt 0.361111 0.772727
vt 0.361111 0.090909
vt 0.361111 0.409091
vt 0.361111 0.727273
vt 0.361111 0.045454
vt 0.361111 0.363636
vt 0.361111 0.681818
vt 0.375000 0.000000
vt 0.361111 0.318182
vt 0.361111 0.636364
vt 0.375000 1.000000
vt 0.361111 0.954546
vt 0.361111 0.272727
vt 0.361111 0.590909
vt 0.361111 0.909091
vt 0.361111 0.227273
vt 0.361111 0.545455
vt 0.333333 0.545455
vt 0.333333 0.500000
vt 0.333333 0.863636
vt 0.333333 0.818182
vt 0.333333 0.181818
vt 0.333333 0.136364
vt 0.333333 0.454545
vt 0.333333 0.772727
vt 0.333333 0.090909
vt 0.333333 0.409091
vt 0.333333 0.727273
vt 0.333333 0.045454
vt 0.333333 0.363636
vt 0.333333 0.681818
vt 0.347222 0.000000
vt 0.333333 0.318182
vt 0.333333 0.636364
vt 0.347222 1.000000
vt 0.333333 0.954546
vt 0.333333 0.272727
vt 0.333333 0.590909
vt 0.333333 0.909091
vt 0.333333 0.227273
vt 0.305556 0.909091
vt 0.305556 0.863636
vt 0.305556 0.227273
vt 0.305556 0.181818
vt 0.305556 0.545455
vt 0.305556 0.500000
vt 0.305556 0.818182
vt 0.305556 0.136364
vt 0.305556 0.454545
vt 0.305556 0.772727
vt 0.305556 0.090909
vt 0.305556 0.409091
vt 0.305556 0.727273
vt 0.305556 0.045454
vt 0.305556 0.363636
vt 0.305556 0.681818
vt 0.319444 0.000000
vt 0.305556 0.318182
vt 0.305556 0.636364
vt 0.319444 1.000000
vt 0.305556 0.954546
vt 0.305556 0.272727
vt 0.305556 0.590909
vt 0.277778 0.272727
vt 0.277778 0.227273
vt 0.277778 0.590909
vt 0.277778 0.545455
vt 0.277778 0.909091
vt 0.277778 0.863636
vt 0.277778 0.181818
vt 0.277778 0.500000
vt 0.277778 0.818182
vt 0.277778 0.136364
vt 0.277778 0.454545
vt 0.277778 0.772727
vt 0.277778 0.090909
vt 0.277778 0.409091
vt 0.277778 0.727273
vt 0.277778 0.045454
vt 0.277778 0.363636
vt 0.277778 0.681818
vt 0.291667 0.000000
vt 0.277778 0.318182
vt 0.277778 0.636364
vt 0.291667 1.000000
vt 0.277778 0.954546
vt 0.250000 0.636364
vt 0.250000 0.590909
vt 0.250000 0.954546
vt 0.250000 0.909091
vt 0.250000 0.272727
vt 0.250000 0.227273
vt 0.250000 0.545455
vt 0.250000 0.863636
vt 0.250000 0.181818
vt 0.250000 0.500000
vt 0.250000 0.818182
vt 0.250000 0.136364
vt 0.250000 0.454545
vt 0.250000 0.772727
vt 0.250000 0.090909
vt 0.250000 0.409091
vt 0.250000 0.727273
vt 0.250000 0.045454
vt 0.250000 0.363636
vt 0.250000 0.681818
vt 0.263889 0.000000
vt 0.250000 0.318182
vt 0.263889 1.000000
vt 0.236111 1.000000
vt 0.222222 0.954546
vt 0.222222 0.318182
vt 0.222222 0.272727
vt 0.222222 0.636364
vt 0.222222 0.590909
vt 0.222222 0.909091
vt 0.222222 0.227273
vt 0.222222 0.545455
vt 0.222222 0.863636
vt 0.222222 0.181818
vt 0.222222 0.500000
vt 0.222222 0.818182
vt 0.222222 0.136364
vt 0.222222 0.454545
vt 0.222222 0.772727
vt 0.222222 0.090909
vt 0.222222 0.409091
vt 0.222222 0.727273
vt 0.222222 0.045454
vt 0.222222 0.363636
vt 0.222222 0.681818
vt 0.236111 0.000000
vt 0.194444 0.681818
vt 0.194444 0.636364
vt 0.208333 1.000000
vt 0.194444 0.954546
vt 0.194444 0.318182
vt 0.194444 0.272727
vt 0.194444 0.590909
vt 0.194444 0.909091
vt 0.194444 0.227273
vt 0.194444 0.545455
vt 0.194444 0.863636
vt 0.194444 0.181818
vt 0.194444 0.500000
vt 0.194444 0.818182
vt 0.194444 0.136364
vt 0.194444 0.454545
vt 0.194444 0.772727
vt 0.194444 0.090909
vt 0.194444 0.409091
vt 0.194444 0.727273
vt 0.194444 0.045454
vt 0.194444 0.363636
vt 0.208333 0.000000
vt 0.180556 0.000000
vt 0.166667 0.045454
vt 0.166667 0.363636
vt 0.166667 0.318182
vt 0.166667 0.681818
vt 0.166667 0.636364
vt 0.180556 1.000000
vt 0.166667 0.954546
vt 0.166667 0.272727
vt 0.166667 0.590909
vt 0.166667 0.909091
vt 0.166667 0.227273
vt 0.166667 0.545455
vt 0.166667 0.863636
vt 0.166667 0.181818
vt 0.166667 0.500000
vt 0.166667 0.818182
vt 0.166667 0.136364
vt 0.166667 0.454545
vt 0.166667 0.772727
vt 0.166667 0.090909
vt 0.166667 0.409091
vt 0.166667 0.727273
vt 0.138889 0.409091
vt 0.138889 0.363636
vt 0.138889 0.727273
vt 0.138889 0.681818
vt 0.152778 0.000000
vt 0.138889 0.045454
vt 0.138889 0.318182
vt 0.138889 0.636364
vt 0.152778 1.000000
vt 0.138889 0.954546
vt 0.138889 0.272727
vt 0.138889 0.590909
vt 0.138889 0.909091
vt 0.138889 0.227273
vt 0.138889 0.545455
vt 0.138889 0.863636
vt 0.138889 0.181818
vt 0.138889 0.500000
vt 0.138889 0.818182
vt 0.138889 0.136364
vt 0.138889 0.454545
vt 0.138889 0.772727
vt 0.138889 0.090909
vt 0.111111 0.772727
vt 0.111111 0.727273
vt 0.111111 0.090909
vt 0.111111 0.045454
vt 0.111111 0.409091
vt 0.111111 0.363636
vt 0.111111 0.681818
vt 0.125000 0.000000
vt 0.111111 0.318182
vt 0.111111 0.636364
vt 0.125000 1.000000
vt 0.111111 0.954546
vt 0.111111 0.272727
vt 0.111111 0.590909
vt 0.111111 0.909091
vt 0.111111 0.227273
vt 0.111111 0.545455
vt 0.111111 0.863636
vt 0.111111 0.181818
vt 0.111111 0.500000
vt 0.111111 0.818182
vt 0.111111 0.136364
vt 0.111111 0.454545
vt 0.083333 0.454545
vt 0.083333 0.409091
vt 0.083333 0.772727
vt 0.083333 0.727273
vt 0.083333 0.090909
vt 0.083333 0.045454
vt 0.083333 0.363636
vt 0.083333 0.681818
vt 0.097222 0.000000
vt 0.083333 0.318182
vt 0.083333 0.636364
vt 0.097222 1.000000
vt 0.083333 0.954546
vt 0.083333 0.272727
vt 0.083333 0.590909
vt 0.083333 0.909091
vt 0.083333 0.227273
vt 0.083333 0.545455
vt 0.083333 0.863636
vt 0.083333 0.181818
vt 0.083333 0.500000
vt 0.083333 0.818182
vt 0.083333 0.136364
vt 0.055556 0.818182
vt 0.055556 0.772727
vt 0.055556 0.136364
vt 0.055556 0.090909
vt 0.055556 0.454545
vt 0.055556 0.409091
vt 0.055556 0.727273
vt 0.055556 0.045454
vt 0.055556 0.363636
vt 0.055556 0.681818
vt 0.069444 0.000000
vt 0.055556 0.318182
vt 0.055556 0.636364
vt 0.069444 1.000000
vt 0.055556 0.954546
vt 0.055556 0.272727
vt 0.055556 0.590909
vt 0.055556 0.909091
vt 0.055556 0.227273
vt 0.055556 0.545455
vt 0.055556 0.863636
vt 0.055556 0.181818
vt 0.055556 0.500000
vt 0.027778 0.181818
vt 0.027778 0.136364
vt 0.027778 0.500000
vt 0.027778 0.454545
vt 0.027778 0.818182
vt 0.027778 0.772727
vt 0.027778 0.090909
vt 0.027778 0.409091
vt 0.027778 0.727273
vt 0.027778 0.045454
vt 0.027778 0.363636
vt 0.027778 0.681818
vt 0.041667 0.000000
vt 0.027778 0.318182
vt 0.027778 0.636364
vt 0.041667 1.000000
vt 0.027778 0.954546
vt 0.027778 0.272727
vt 0.027778 0.590909
vt 0.027778 0.909091
vt 0.027778 0.227273
vt 0.027778 0.545455
vt 0.027778 0.863636
vt 0.000000 0.545455
vt 0.000000 0.500000
vt 0.000000 0.863636
vt 0.000000 0.818182
vt 0.000000 0.181818
vt 0.000000 0.136364
vt 0.000000 0.454545
vt 0.000000 0.772727
vt 0.000000 0.090909
vt 0.000000 0.409091
vt 0.000000 0.727273
vt 0.000000 0.045454
vt 0.000000 0.363636
vt 0.000000 0.681818
vt 0.013889 0.000000
vt 0.000000 0.318182
vt 0.000000 0.636364
vt 0.013889 1.000000
vt 0.000000 0.954546
vt 0.000000 0.272727
vt 0.000000 0.590909
vt 0.000000 0.909091
vt 0.000000 0.227273
vt 1.000000 0.863636
vt 1.000000 0.909091
vt 0.972222 0.909091
vt 0.972222 0.863636
vt 1.000000 0.181818
vt 1.000000 0.227273
vt 0.972222 0.227273
vt 0.972222 0.181818
vt 1.000000 0.500000
vt 1.000000 0.545455
vt 0.972222 0.545455
vt 0.972222 0.500000
vt 1.000000 0.818182
vt 0.972222 0.818182
vt 1.000000 0.136364
vt 0.972222 0.136364
vt 1.000000 0.454545
vt 0.972222 0.454545
vt 1.000000 0.772727
vt 0.972222 0.772727
vt 1.000000 0.090909
vt 0.972222 0.090909
vt 1.000000 0.409091
vt 0.972222 0.409091
vt 1.000000 0.727273
vt 0.972222 0.727273
vt 1.000000 0.045454
vt 0.972222 0.045454
vt 1.000000 0.363636
vt 0.972222 0.363636
vt 1.000000 0.681818
vt 0.972222 0.681818
vt 0.986111 0.000000
vt 1.000000 0.318182
vt 0.972222 0.318182
vt 1.000000 0.636364
vt 0.972222 0.636364
vt 1.000000 0.954546
vt 0.986111 1.000000
vt 0.972222 0.954546
vt 1.000000 0.272727
vt 0.972222 0.272727
vt 1.000000 0.590909
vt 0.972222 0.590909
vt 0.944444 0.590909
vt 0.944444 0.545455
vt 0.944444 0.909091
vt 0.944444 0.863636
vt 0.944444 0.227273
vt 0.944444 0.181818
vt 0.944444 0.500000
vt 0.944444 0.818182
vt 0.944444 0.136364
vt 0.944444 0.454545
vt 0.944444 0.772727
vt 0.944444 0.090909
vt 0.944444 0.409091
vt 0.944444 0.727273
vt 0.944444 0.045454
vt 0.944444 0.363636
vt 0.944444 0.681818
vt 0.958333 0.000000
vt 0.944444 0.318182
vt 0.944444 0.636364
vt 0.958333 1.000000
vt 0.944444 0.954546
vt 0.944444 0.272727
vt 0.916667 0.954546
vt 0.916667 0.909091
vt 0.916667 0.272727
vt 0.916667 0.227273
vt 0.916667 0.590909
vt 0.916667 0.545455
vt 0.916667 0.863636
vt 0.916667 0.181818
vt 0.916667 0.500000
vt 0.916667 0.818182
vt 0.916667 0.136364
vt 0.916667 0.454545
vt 0.916667 0.772727
vt 0.916667 0.090909
vt 0.916667 0.409091
vt 0.916667 0.727273
vt 0.916667 0.045454
vt 0.916667 0.363636
vt 0.916667 0.681818
vt 0.930555 0.000000
vt 0.916667 0.318182
vt 0.916667 0.636364
vt 0.930555 1.000000
vt 0.888889 0.318182
vt 0.888889 0.272727
vt 0.888889 0.636364
vt 0.888889 0.590909
vt 0.888889 0.954546
vt 0.888889 0.909091
vt 0.888889 0.227273
vt 0.888889 0.545455
vt 0.888889 0.863636
vt 0.888889 0.181818
vt 0.888889 0.500000
vt 0.888889 0.818182
vt 0.888889 0.136364
vt 0.888889 0.454545
vt 0.888889 0.772727
vt 0.888889 0.090909
vt 0.888889 0.409091
vt 0.888889 0.727273
vt 0.888889 0.045454
vt 0.888889 0.363636
vt 0.888889 0.681818
vt 0.902778 0.000000
vt 0.902778 1.000000
vt 0.861111 0.681818
vt 0.861111 0.636364
vt 0.875000 1.000000
vt 0.861111 0.954546
vt 0.861111 0.318182
vt 0.861111 0.272727
vt 0.861111 0.590909
vt 0.861111 0.909091
vt 0.861111 0.227273
vt 0.861111 0.545455
vt 0.861111 0.863636
vt 0.861111 0.181818
vt 0.861111 0.500000
vt 0.861111 0.818182
vt 0.861111 0.136364
vt 0.861111 0.454545
vt 0.861111 0.772727
vt 0.861111 0.090909
vt 0.861111 0.409091
vt 0.861111 0.727273
vt 0.861111 0.045454
vt 0.861111 0.363636
vt 0.875000 0.000000
vt 0.833333 0.363636
vt 0.833333 0.318182
vt 0.833333 0.681818
vt 0.833333 0.636364
vt 0.847222 1.000000
vt 0.833333 0.954546
vt 0.833333 0.272727
vt 0.833333 0.590909
vt 0.833333 0.909091
vt 0.833333 0.227273
vt 0.833333 0.545455
vt 0.833333 0.863636
vt 0.833333 0.181818
vt 0.833333 0.500000
vt 0.833333 0.818182
vt 0.833333 0.136364
vt 0.833333 0.454545
vt 0.833333 0.772727
vt 0.833333 0.090909
vt 0.833333 0.409091
vt 0.833333 0.727273
vt 0.833333 0.045454
vt 0.847222 0.000000
vt 0.805555 0.727273
vt 0.805555 0.681818
vt 0.819444 0.000000
vt 0.805555 0.045454
vt 0.805556 0.363636
vt 0.805555 0.318182
vt 0.805556 0.636364
vt 0.819444 1.000000
vt 0.805555 0.954546
vt 0.805555 0.272727
vt 0.805556 0.590909
vt 0.805556 0.909091
vt 0.805556 0.227273
vt 0.805556 0.545455
vt 0.805556 0.863636
vt 0.805555 0.181818
vt 0.805556 0.500000
vt 0.805555 0.818182
vt 0.805556 0.136364
vt 0.805556 0.454545
vt 0.805556 0.772727
vt 0.805556 0.090909
vt 0.805556 0.409091
vt 0.777778 0.090909
vt 0.777778 0.045454
vt 0.777778 0.409091
vt 0.777778 0.363636
vt 0.777778 0.727273
vt 0.777778 0.681818
vt 0.791667 0.000000
vt 0.777778 0.318182
vt 0.777778 0.636364
vt 0.791667 1.000000
vt 0.777778 0.954546
vt 0.777778 0.272727
vt 0.777778 0.590909
vt 0.777778 0.909091
vt 0.777778 0.227273
vt 0.777778 0.545455
vt 0.777778 0.863636
vt 0.777778 0.181818
vt 0.777778 0.500000
vt 0.777778 0.818182
vt 0.777778 0.136364
vt 0.777778 0.454545
vt 0.777778 0.772727
vt 0.763889 0.000000
vt 0.763889 1.000000
s 1
f 8/1/8 7/2/7 23/3/23 24/4/24
f 4/5/4 3/6/3 16/7/16 17/8/17
f 13/9/13 12/10/12 31/11/31 32/12/32
f 9/13/9 8/1/8 24/4/24 25/14/25
f 751/15/751 4/5/4 17/8/17 18/16/18
f 757/17/757 13/9/13 32/12/32 33/18/33
f 10/19/10 9/13/9 25/14/25 26/20/26
f 752/21/752 751/15/751 18/16/18 19/22/19
f 758/23/758 757/17/757 33/18/33 34/24/34
f 11/25/11 10/19/10 26/20/26 27/26/27
f 5/27/5 752/21/752 19/22/19 20/28/20
f 183/29/183 758/23/758 34/24/34
f 754/30/754 11/25/11 27/26/27 28/31/28
f 753/32/753 5/27/5 20/28/20 21/33/21
f 1/34/1 119/35/119 14/36/14
f 755/37/755 754/30/754 28/31/28 29/38/29
f 6/39/6 753/32/753 21/33/21 22/40/22
f 2/41/2 1/34/1 14/36/14 15/42/15
f 756/43/756 755/37/755 29/38/29 30/44/30
f 7/2/7 6/39/6 22/40/22 23/3/23
f 3/6/3 2/41/2 15/42/15 16/7/16
f 12/10/12 756/43/756 30/44/30 31/11/31
f 17/8/17 16/7/16 37/45/37 38/46/38
f 32/12/32 31/11/31 52/47/52 53/48/53
f 25/14/25 24/4/24 45/49/45 46/50/46
f 18/16/18 17/8/17 38/46/38 39/51/39
f 33/18/33 32/12/32 53/48/53 54/52/54
f 26/20/26 25/14/25 46/50/46 47/53/47
f 19/22/19 18/16/18 39/51/39 40/54/40
f 34/24/34 33/18/33 54/52/54 55/55/55
f 27/26/27 26/20/26 47/53/47 48/56/48
f 20/28/20 19/22/19 40/54/40 41/57/41
f 183/58/183 34/24/34 55/55/55
f 28/31/28 27/26/27 48/56/48 49/59/49
f 21/33/21 20/28/20 41/57/41 42/60/42
f 14/36/14 119/61/119 35/62/35
f 29/38/29 28/31/28 49/59/49 50/63/50
f 22/40/22 21/33/21 42/60/42 43/64/43
f 15/42/15 14/36/14 35/62/35 36/65/36
f 30/44/30 29/38/29 50/63/50 51/66/51
f 23/3/23 22/40/22 43/64/43 44/67/44
f 16/7/16 15/42/15 36/65/36 37/45/37
f 31/11/31 30/44/30 51/66/51 52/47/52
f 24/4/24 23/3/23 44/67/44 45/49/45
f 52/47/52 51/66/51 72/68/72 73/69/73
f 45/49/45 44/67/44 65/70/65 66/71/66
f 38/46/38 37/45/37 58/72/58 59/73/59
f 53/48/53 52/47/52 73/69/73 74/74/74
f 46/50/46 45/49/45 66/71/66 67/75/67
f 39/51/39 38/46/38 59/73/59 60/76/60
f 54/52/54 53/48/53 74/74/74 75/77/75
f 47/53/47 46/50/46 67/75/67 68/78/68
f 40/54/40 39/51/39 60/76/60 61/79/61
f 55/55/55 54/52/54 75/77/75 76/80/76
f 48/56/48 47/53/47 68/78/68 69/81/69
f 41/57/41 40/54/40 61/79/61 62/82/62
f 183/83/183 55/55/55 76/80/76
f 49/59/49 48/56/48 69/81/69 70/84/70
f 42/60/42 41/57/41 62/82/62 63/85/63
f 35/62/35 119/86/119 56/87/56
f 50/63/50 49/59/49 70/84/70 71/88/71
f 43/64/43 42/60/42 63/85/63 64/89/64
f 36/65/36 35/62/35 56/87/56 57/90/57
f 51/66/51 50/63/50 71/88/71 72/68/72
f 44/67/44 43/64/43 64/89/64 65/70/65
f 37/45/37 36/65/36 57/90/57 58/72/58
f 65/70/65 64/89/64 85/91/85 86/92/86
f 58/72/58 57/90/57 78/93/78 79/94/79
f 73/69/73 72/68/72 93/95/93 94/96/94
f 66/71/66 65/70/65 86/92/86 87/97/87
f 59/73/59 58/72/58 79/94/79 80/98/80
f 74/74/74 73/69/73 94/96/94 95/99/95
f 67/75/67 66/71/66 87/97/87 88/100/88
f 60/76/60 59/73/59 80/98/80 81/101/81
f 75/77/75 74/74/74 95/99/95 96/102/96
f 68/78/68 67/75/67 88/100/88 89/103/89
f 61/79/61 60/76/60 81/101/81 82/104/82
f 76/80/76 75/77/75 96/102/96 97/105/97
f 69/81/69 68/78/68 89/103/89 90/106/90
f 62/82/62 61/79/61 82/104/82 83/107/83
f 183/108/183 76/80/76 97/105/97
f 70/84/70 69/81/69 90/106/90 91/109/91
f 63/85/63 62/82/62 83/107/83 84/110/84
f 56/87/56 119/111/119 77/112/77
f 71/88/71 70/84/70 91/109/91 92/113/92
f 64/89/64 63/85/63 84/110/84 85/91/85
f 57/90/57 56/87/56 77/112/77 78/93/78
f 72/68/72 71/88/71 92/113/92 93/95/93
f 78/93/78 77/112/77 98/114/98 99/115/99
f 93/95/93 92/113/92 113/116/113 114/117/114
f 86/92/86 85/91/85 106/118/106 107/119/107
f 79/94/79 78/93/78 99/115/99 100/120/100
f 94/96/94 93/95/93 114/117/114 115/121/115
f 87/97/87 86/92/86 107/119/107 108/122/108
f 80/98/80 79/94/79 100/120/100 101/123/101
f 95/99/95 94/96/94 115/121/115 116/124/116
f 88/100/88 87/97/87 108/122/108 109/125/109
f 81/101/81 80/98/80 101/123/101 102/126/102
f 96/102/96 95/99/95 116/124/116 117/127/117
f 89/103/89 88/100/88 109/125/109 110/128/110
f 82/104/82 81/101/81 102/126/102 103/129/103
f 97/105/97 96/102/96 117/127/117 118/130/118
f 90/106/90 89/103/89 110/128/110 111/131/111
f 83/107/83 82/104/82 103/129/103 104/132/104
f 183/133/183 97/105/97 118/130/118
f 91/109/91 90/106/90 111/131/111 112/134/112
f 84/110/84 83/107/83 104/132/104 105/135/105
f 77/112/77 119/136/119 98/114/98
f 92/113/92 91/109/91 112/134/112 113/116/113
f 85/91/85 84/110/84 105/135/105 106/118/106
f 106/118/106 105/135/105 127/137/127 128/138/128
f 99/115/99 98/114/98 120/139/120 121/140/121
f 114/117/114 113/116/113 135/141/135 136/142/136
f 107/119/107 106/118/106 128/138/128 129/143/129
f 100/120/100 99/115/99 121/140/121 122/144/122
f 115/121/115 114/117/114 136/142/136 137/145/137
f 108/122/108 107/119/107 129/143/129 130/146/130
f 101/123/101 100/120/100 122/144/122 123/147/123
f 116/124/116 115/121/115 137/145/137 138/148/138
f 109/125/109 108/122/108 130/146/130 131/149/131
f 102/126/102 101/123/101 123/147/123 124/150/124
f 117/127/117 116/124/116 138/148/138 139/151/139
f 110/128/110 109/125/109 131/149/131 132/152/132
f 103/129/103 102/126/102 124/150/124 125/153/125
f 118/130/118 117/127/117 139/151/139 140/154/140
f 111/131/111 110/128/110 132/152/132 133/155/133
f 104/132/104 103/129/103 125/153/125 126/156/126
f 183/157/183 118/130/118 140/154/140
f 112/134/112 111/131/111 133/155/133 134/158/134
f 105/135/105 104/132/104 126/156/126 127/137/127
f 98/114/98 119/159/119 120/139/120
f 113/116/113 112/134/112 134/158/134 135/141/135
f 120/139/120 119/160/119 141/161/141
f 135/141/135 134/158/134 155/162/155 156/163/156
f 128/138/128 127/137/127 148/164/148 149/165/149
f 121/140/121 120/139/120 141/161/141 142/166/142
f 136/142/136 135/141/135 156/163/156 157/167/157
f 129/143/129 128/138/128 149/165/149 150/168/150
f 122/144/122 121/140/121 142/166/142 143/169/143
f 137/145/137 136/142/136 157/167/157 158/170/158
f 130/146/130 129/143/129 150/168/150 151/171/151
f 123/147/123 122/144/122 143/169/143 144/172/144
f 138/148/138 137/145/137 158/170/158 159/173/159
f 131/149/131 130/146/130 151/171/151 152/174/152
f 124/150/124 123/147/123 144/172/144 145/175/145
f 139/151/139 138/148/138 159/173/159 160/176/160
f 132/152/132 131/149/131 152/174/152 153/177/153
f 125/153/125 124/150/124 145/175/145 146/178/146
f 140/154/140 139/151/139 160/176/160 161/179/161
f 133/155/133 132/152/132 153/177/153 154/180/154
f 126/156/126 125/153/125 146/178/146 147/181/147
f 183/182/183 140/154/140 161/179/161
f 134/158/134 133/155/133 154/180/154 155/162/155
f 127/137/127 126/156/126 147/181/147 148/164/148
f 155/162/155 154/180/154 175/183/175 176/184/176
f 148/164/148 147/181/147 168/185/168 169/186/169
f 141/161/141 119/187/119 162/188/162
f 156/163/156 155/162/155 176/184/176 177/189/177
f 149/165/149 148/164/148 169/186/169 170/190/170
f 142/166/142 141/161/141 162/188/162 163/191/163
f 157/167/157 156/163/156 177/189/177 178/192/178
f 150/168/150 149/165/149 170/190/170 171/193/171
f 143/169/143 142/166/142 163/191/163 164/194/164
f 158/170/158 157/167/157 178/192/178 179/195/179
f 151/171/151 150/168/150 171/193/171 172/196/172
f 144/172/144 143/169/143 164/194/164 165/197/165
f 159/173/159 158/170/158 179/195/179 180/198/180
f 152/174/152 151/171/151 172/196/172 173/199/173
f 145/175/145 144/172/144 165/197/165 166/200/166
f 160/176/160 159/173/159 180/198/180 181/201/181
f 153/177/153 152/174/152 173/199/173 174/202/174
f 146/178/146 145/175/145 166/200/166 167/203/167
f 161/179/161 160/176/160 181/201/181 182/204/182
f 154/180/154 153/177/153 174/202/174 175/183/175
f 147/181/147 146/178/146 167/203/167 168/185/168
f 183/205/183 161/179/161 182/204/182
f 168/185/168 167/203/167 189/206/189 190/207/190
f 183/208/183 182/204/182 204/209/204
f 176/184/176 175/183/175 197/210/197 198/211/198
f 169/186/169 168/185/168 190/207/190 191/212/191
f 162/188/162 119/213/119 184/214/184
f 177/189/177 176/184/176 198/211/198 199/215/199
f 170/190/170 169/186/169 191/212/191 192/216/192
f 163/191/163 162/188/162 184/214/184 185/217/185
f 178/192/178 177/189/177 199/215/199 200/218/200
f 171/193/171 170/190/170 192/216/192 193/219/193
f 164/194/164 163/191/163 185/217/185 186/220/186
f 179/195/179 178/192/178 200/218/200 201/221/201
f 172/196/172 171/193/171 193/219/193 194/222/194
f 165/197/165 164/194/164 186/220/186 187/223/187
f 180/198/180 179/195/179 201/221/201 202/224/202
f 173/199/173 172/196/172 194/222/194 195/225/195
f 166/200/166 165/197/165 187/223/187 188/226/188
f 181/201/181 180/198/180 202/224/202 203/227/203
f 174/202/174 173/199/173 195/225/195 196/228/196
f 167/203/167 166/200/166 188/226/188 189/206/189
f 182/204/182 181/201/181 203/227/203 204/209/204
f 175/183/175 174/202/174 196/228/196 197/210/197
f 197/210/197 196/228/196 217/229/217 218/230/218
f 190/207/190 189/206/189 210/231/210 211/232/211
f 183/233/183 204/209/204 225/234/225
f 198/211/198 197/210/197 218/230/218 219/235/219
f 191/212/191 190/207/190 211/232/211 212/236/212
f 184/214/184 119/237/119 205/238/205
f 199/215/199 198/211/198 219/235/219 220/239/220
f 192/216/192 191/212/191 212/236/212 213/240/213
f 185/217/185 184/214/184 205/238/205 206/241/206
f 200/218/200 199/215/199 220/239/220 221/242/221
f 193/219/193 192/216/192 213/240/213 214/243/214
f 186/220/186 185/217/185 206/241/206 207/244/207
f 201/221/201 200/218/200 221/242/221 222/245/222
f 194/222/194 193/219/193 214/243/214 215/246/215
f 187/223/187 186/220/186 207/244/207 208/247/208
f 202/224/202 201/221/201 222/245/222 223/248/223
f 195/225/195 194/222/194 215/246/215 216/249/216
f 188/226/188 187/223/187 208/247/208 209/250/209
f 203/227/203 202/224/202 223/248/223 224/251/224
f 196/228/196 195/225/195 216/249/216 217/229/217
f 189/206/189 188/226/188 209/250/209 210/231/210
f 204/209/204 203/227/203 224/251/224 225/234/225
f 210/231/210 209/250/209 230/252/230 231/253/231
f 225/234/225 224/251/224 245/254/245 246/255/246
f 218/230/218 217/229/217 238/256/238 239/257/239
f 211/232/211 210/231/210 231/253/231 232/258/232
f 183/259/183 225/234/225 246/255/246
f 219/235/219 218/230/218 239/257/239 240/260/240
f 212/236/212 211/232/211 232/258/232 233/261/233
f 205/238/205 119/262/119 226/263/226
f 220/239/220 219/235/219 240/260/240 241/264/241
f 213/240/213 212/236/212 233/261/233 234/265/234
f 206/241/206 205/238/205 226/263/226 227/266/227
f 221/242/221 220/239/220 241/264/241 242/267/242
f 214/243/214 213/240/213 234/265/234 235/268/235
f 207/244/207 206/241/206 227/266/227 228/269/228
f 222/245/222 221/242/221 242/267/242 243/270/243
f 215/246/215 214/243/214 235/268/235 236/271/236
f 208/247/208 207/244/207 228/269/228 229/272/229
f 223/248/223 222/245/222 243/270/243 244/273/244
f 216/249/216 215/246/215 236/271/236 237/274/237
f 209/250/209 208/247/208 229/272/229 230/252/230
f 224/251/224 223/248/223 244/273/244 245/254/245
f 217/229/217 216/249/216 237/274/237 238/256/238
f 245/254/245 244/273/244 265/275/265 266/276/266
f 238/256/238 237/274/237 258/277/258 259/278/259
f 231/253/231 230/252/230 251/279/251 252/280/252
f 246/255/246 245/254/245 266/276/266 267/281/267
f 239/257/239 238/256/238 259/278/259 260/282/260
f 232/258/232 231/253/231 252/280/252 253/283/253
f 183/284/183 246/255/246 267/281/267
f 240/260/240 239/257/239 260/282/260 261/285/261
f 233/261/233 232/258/232 253/283/253 254/286/254
f 226/263/226 119/287/119 247/288/247
f 241/264/241 240/260/240 261/285/261 262/289/262
f 234/265/234 233/261/233 254/286/254 255/290/255
f 227/266/227 226/263/226 247/288/247 248/291/248
f 242/267/242 241/264/241 262/289/262 263/292/263
f 235/268/235 234/265/234 255/290/255 256/293/256
f 228/269/228 227/266/227 248/291/248 249/294/249
f 243/270/243 242/267/242 263/292/263 264/295/264
f 236/271/236 235/268/235 256/293/256 257/296/257
f 229/272/229 228/269/228 249/294/249 250/297/250
f 244/273/244 243/270/243 264/295/264 265/275/265
f 237/274/237 236/271/236 257/296/257 258/277/258
f 230/252/230 229/272/229 250/297/250 251/279/251
f 258/277/258 257/296/257 278/298/278 279/299/279
f 251/279/251 250/297/250 271/300/271 272/301/272
f 266/276/266 265/275/265 286/302/286 287/303/287
f 259/278/259 258/277/258 279/299/279 280/304/280
f 252/280/252 251/279/251 272/301/272 273/305/273
f 267/281/267 266/276/266 287/303/287 288/306/288
f 260/282/260 259/278/259 280/304/280 281/307/281
f 253/283/253 252/280/252 273/305/273 274/308/274
f 183/309/183 267/281/267 288/306/288
f 261/285/261 260/282/260 281/307/281 282/310/282
f 254/286/254 253/283/253 274/308/274 275/311/275
f 247/288/247 119/312/119 268/313/268
f 262/289/262 261/285/261 282/310/282 283/314/283
f 255/290/255 254/286/254 275/311/275 276/315/276
f 248/291/248 247/288/247 268/313/268 269/316/269
f 263/292/263 262/289/262 283/314/283 284/317/284
f 256/293/256 255/290/255 276/315/276 277/318/277
f 249/294/249 248/291/248 269/316/269 270/319/270
f 264/295/264 263/292/263 284/317/284 285/320/285
f 257/296/257 256/293/256 277/318/277 278/298/278
f 250/297/250 249/294/249 270/319/270 271/300/271
f 265/275/265 264/295/264 285/320/285 286/302/286
f 271/300/271 270/319/270 291/321/291 292/322/292
f 286/302/286 285/320/285 306/323/306 307/324/307
f 279/299/279 278/298/278 299/325/299 300/326/300
f 272/301/272 271/300/271 292/322/292 293/327/293
f 287/303/287 286/302/286 307/324/307 308/328/308
f 280/304/280 279/299/279 300/326/300 301/329/301
f 273/305/273 272/301/272 293/327/293 294/330/294
f 288/306/288 287/303/287 308/328/308 309/331/309
f 281/307/281 280/304/280 301/329/301 302/332/302
f 274/308/274 273/305/273 294/330/294 295/333/295
f 183/334/183 288/306/288 309/331/309
f 282/310/282 281/307/281 302/332/302 303/335/303
f 275/311/275 274/308/274 295/333/295 296/336/296
f 268/313/268 119/337/119 289/338/289
f 283/314/283 282/310/282 303/335/303 304/339/304
f 276/315/276 275/311/275 296/336/296 297/340/297
f 269/316/269 268/313/268 289/338/289 290/341/290
f 284/317/284 283/314/283 304/339/304 305/342/305
f 277/318/277 276/315/276 297/340/297 298/343/298
f 270/319/270 269/316/269 290/341/290 291/321/291
f 285/320/285 284/317/284 305/342/305 306/323/306
f 278/298/278 277/318/277 298/343/298 299/325/299
f 299/325/299 298/343/298 319/344/319 320/345/320
f 292/322/292 291/321/291 312/346/312 313/347/313
f 307/324/307 306/323/306 327/348/327 328/349/328
f 300/326/300 299/325/299 320/345/320 321/350/321
f 293/327/293 292/322/292 313/347/313 314/351/314
f 308/328/308 307/324/307 328/349/328 329/352/329
f 301/329/301 300/326/300 321/350/321 322/353/322
f 294/330/294 293/327/293 314/351/314 315/354/315
f 309/331/309 308/328/308 329/352/329 330/355/330
f 302/332/302 301/329/301 322/353/322 323/356/323
f 295/333/295 294/330/294 315/354/315 316/357/316
f 183/358/183 309/331/309 330/355/330
f 303/335/303 302/332/302 323/356/323 324/359/324
f 296/336/296 295/333/295 316/357/316 317/360/317
f 289/338/289 119/361/119 310/362/310
f 304/339/304 303/335/303 324/359/324 325/363/325
f 297/340/297 296/336/296 317/360/317 318/364/318
f 290/341/290 289/338/289 310/362/310 311/365/311
f 305/342/305 304/339/304 325/363/325 326/366/326
f 298/343/298 297/340/297 318/364/318 319/344/319
f 291/321/291 290/341/290 311/365/311 312/346/312
f 306/323/306 305/342/305 326/366/326 327/348/327
f 312/346/312 311/365/311 332/367/332 333/368/333
f 327/348/327 326/366/326 347/369/347 348/370/348
f 320/345/320 319/344/319 340/371/340 341/372/341
f 313/347/313 312/346/312 333/368/333 334/373/334
f 328/349/328 327/348/327 348/370/348 349/374/349
f 321/350/321 320/345/320 341/372/341 342/375/342
f 314/351/314 313/347/313 334/373/334 335/376/335
f 329/352/329 328/349/328 349/374/349 350/377/350
f 322/353/322 321/350/321 342/375/342 343/378/343
f 315/354/315 314/351/314 335/376/335 336/379/336
f 330/355/330 329/352/329 350/377/350 351/380/351
f 323/356/323 322/353/322 343/378/343 344/381/344
f 316/357/316 315/354/315 336/379/336 337/382/337
f 183/383/183 330/355/330 351/380/351
f 324/359/324 323/356/323 344/381/344 345/384/345
f 317/360/317 316/357/316 337/382/337 338/385/338
f 310/362/310 119/386/119 331/387/331
f 325/363/325 324/359/324 345/384/345 346/388/346
f 318/364/318 317/360/317 338/385/338 339/389/339
f 311/365/311 310/362/310 331/387/331 332/367/332
f 326/366/326 325/363/325 346/388/346 347/369/347
f 319/344/319 318/364/318 339/389/339 340/371/340
f 347/369/347 346/388/346 367/390/367 368/391/368
f 340/371/340 339/389/339 360/392/360 361/393/361
f 333/368/333 332/367/332 353/394/353 354/395/354
f 348/370/348 347/369/347 368/391/368 369/396/369
f 341/372/341 340/371/340 361/393/361 362/397/362
f 334/373/334 333/368/333 354/395/354 355/398/355
f 349/374/349 348/370/348 369/396/369 370/399/370
f 342/375/342 341/372/341 362/397/362 363/400/363
f 335/376/335 334/373/334 355/398/355 356/401/356
f 350/377/350 349/374/349 370/399/370 371/402/371
f 343/378/343 342/375/342 363/400/363 364/403/364
f 336/379/336 335/376/335 356/401/356 357/404/357
f 351/380/351 350/377/350 371/402/371 372/405/372
f 344/381/344 343/378/343 364/403/364 365/406/365
f 337/382/337 336/379/336 357/404/357 358/407/358
f 183/408/183 351/380/351 372/405/372
f 345/384/345 344/381/344 365/406/365 366/409/366
f 338/385/338 337/382/337 358/407/358 359/410/359
f 331/387/331 119/411/119 352/412/352
f 346/388/346 345/384/345 366/409/366 367/390/367
f 339/389/339 338/385/338 359/410/359 360/392/360
f 332/367/332 331/387/331 352/412/352 353/394/353
f 360/392/360 359/410/359 380/413/380 381/414/381
f 353/394/353 352/412/352 373/415/373 374/416/374
f 368/391/368 367/390/367 388/417/388 389/418/389
f 361/393/361 360/392/360 381/414/381 382/419/382
f 354/395/354 353/394/353 374/416/374 375/420/375
f 369/396/369 368/391/368 389/418/389 390/421/390
f 362/397/362 361/393/361 382/419/382 383/422/383
f 355/398/355 354/395/354 375/420/375 376/423/376
f 370/399/370 369/396/369 390/421/390 391/424/391
f 363/400/363 362/397/362 383/422/383 384/425/384
f 356/401/356 355/398/355 376/423/376 377/426/377
f 371/402/371 370/399/370 391/424/391 392/427/392
f 364/403/364 363/400/363 384/425/384 385/428/385
f 357/404/357 356/401/356 377/426/377 378/429/378
f 372/405/372 371/402/371 392/427/392 393/430/393
f 365/406/365 364/403/364 385/428/385 386/431/386
f 358/407/358 357/404/357 378/429/378 379/432/379
f 183/433/183 372/405/372 393/430/393
f 366/409/366 365/406/365 386/431/386 387/434/387
f 359/410/359 358/407/358 379/432/379 380/413/380
f 352/412/352 119/435/119 373/415/373
f 367/390/367 366/409/366 387/434/387 388/417/388
f 373/415/373 119/436/119 394/437/394
f 388/417/388 387/434/387 408/438/408 409/439/409
f 381/414/381 380/413/380 401/440/401 402/441/402
f 374/416/374 373/415/373 394/437/394 395/442/395
f 389/418/389 388/417/388 409/439/409 410/443/410
f 382/419/382 381/414/381 402/441/402 403/444/403
f 375/420/375 374/416/374 395/442/395 396/445/396
f 390/421/390 389/418/389 410/443/410 411/446/411
f 383/422/383 382/419/382 403/444/403 404/447/404
f 376/423/376 375/420/375 396/445/396 397/448/397
f 391/424/391 390/421/390 411/446/411 412/449/412
f 384/425/384 383/422/383 404/447/404 405/450/405
f 377/426/377 376/423/376 397/448/397 398/451/398
f 392/427/392 391/424/391 412/449/412 413/452/413
f 385/428/385 384/425/384 405/450/405 406/453/406
f 378/429/378 377/426/377 398/451/398 399/454/399
f 393/430/393 392/427/392 413/452/413 414/455/414
f 386/431/386 385/428/385 406/453/406 407/456/407
f 379/432/379 378/429/378 399/454/399 400/457/400
f 183/458/183 393/430/393 414/455/414
f 387/434/387 386/431/386 407/456/407 408/438/408
f 380/413/380 379/432/379 400/457/400 401/440/401
f 401/440/401 400/457/400 421/459/421 422/460/422
f 394/437/394 119/461/119 415/462/415
f 409/439/409 408/438/408 429/463/429 430/464/430
f 402/441/402 401/440/401 422/460/422 423/465/423
f 395/442/395 394/437/394 415/462/415 416/466/416
f 410/443/410 409/439/409 430/464/430 431/467/431
f 403/444/403 402/441/402 423/465/423 424/468/424
f 396/445/396 395/442/395 416/466/416 417/469/417
f 411/446/411 410/443/410 431/467/431 432/470/432
f 404/447/404 403/444/403 424/468/424 425/471/425
f 397/448/397 396/445/396 417/469/417 418/472/418
f 412/449/412 411/446/411 432/470/432 433/473/433
f 405/450/405 404/447/404 425/471/425 426/474/426
f 398/451/398 397/448/397 418/472/418 419/475/419
f 413/452/413 412/449/412 433/473/433 434/476/434
f 406/453/406 405/450/405 426/474/426 427/477/427
f 399/454/399 398/451/398 419/475/419 420/478/420
f 414/455/414 413/452/413 434/476/434 435/479/435
f 407/456/407 406/453/406 427/477/427 428/480/428
f 400/457/400 399/454/399 420/478/420 421/459/421
f 183/481/183 414/455/414 435/479/435
f 408/438/408 407/456/407 428/480/428 429/463/429
f 183/482/183 435/479/435 456/483/456
f 429/463/429 428/480/428 449/484/449 450/485/450
f 422/460/422 421/459/421 442/486/442 443/487/443
f 415/462/415 119/488/119 436/489/436
f 430/464/430 429/463/429 450/485/450 451/490/451
f 423/465/423 422/460/422 443/487/443 444/491/444
f 416/466/416 415/462/415 436/489/436 437/492/437
f 431/467/431 430/464/430 451/490/451 452/493/452
f 424/468/424 423/465/423 444/491/444 445/494/445
f 417/469/417 416/466/416 437/492/437 438/495/438
f 432/470/432 431/467/431 452/493/452 453/496/453
f 425/471/425 424/468/424 445/494/445 446/497/446
f 418/472/418 417/469/417 438/495/438 439/498/439
f 433/473/433 432/470/432 453/496/453 454/499/454
f 426/474/426 425/471/425 446/497/446 447/500/447
f 419/475/419 418/472/418 439/498/439 440/501/440
f 434/476/434 433/473/433 454/499/454 455/502/455
f 427/477/427 426/474/426 447/500/447 448/503/448
f 420/478/420 419/475/419 440/501/440 441/504/441
f 435/479/435 434/476/434 455/502/455 456/483/456
f 428/480/428 427/477/427 448/503/448 449/484/449
f 421/459/421 420/478/420 441/504/441 442/486/442
f 449/484/449 448/503/448 469/505/469 470/506/470
f 442/486/442 441/504/441 462/507/462 463/508/463
f 183/509/183 456/483/456 477/510/477
f 450/485/450 449/484/449 470/506/470 471/511/471
f 443/487/443 442/486/442 463/508/463 464/512/464
f 436/489/436 119/513/119 457/514/457
f 451/490/451 450/485/450 471/511/471 472/515/472
f 444/491/444 443/487/443 464/512/464 465/516/465
f 437/492/437 436/489/436 457/514/457 458/517/458
f 452/493/452 451/490/451 472/515/472 473/518/473
f 445/494/445 444/491/444 465/516/465 466/519/466
f 438/495/438 437/492/437 458/517/458 459/520/459
f 453/496/453 452/493/452 473/518/473 474/521/474
f 446/497/446 445/494/445 466/519/466 467/522/467
f 439/498/439 438/495/438 459/520/459 460/523/460
f 454/499/454 453/496/453 474/521/474 475/524/475
f 447/500/447 446/497/446 467/522/467 468/525/468
f 440/501/440 439/498/439 460/523/460 461/526/461
f 455/502/455 454/499/454 475/524/475 476/527/476
f 448/503/448 447/500/447 468/525/468 469/505/469
f 441/504/441 440/501/440 461/526/461 462/507/462
f 456/483/456 455/502/455 476/527/476 477/510/477
f 462/507/462 461/526/461 482/528/482 483/529/483
f 477/510/477 476/527/476 497/530/497 498/531/498
f 470/506/470 469/505/469 490/532/490 491/533/491
f 463/508/463 462/507/462 483/529/483 484/534/484
f 183/535/183 477/510/477 498/531/498
f 471/511/471 470/506/470 491/533/491 492/536/492
f 464/512/464 463/508/463 484/534/484 485/537/485
f 457/514/457 119/538/119 478/539/478
f 472/515/472 471/511/471 492/536/492 493/540/493
f 465/516/465 464/512/464 485/537/485 486/541/486
f 458/517/458 457/514/457 478/539/478 479/542/479
f 473/518/473 472/515/472 493/540/493 494/543/494
f 466/519/466 465/516/465 486/541/486 487/544/487
f 459/520/459 458/517/458 479/542/479 480/545/480
f 474/521/474 473/518/473 494/543/494 495/546/495
f 467/522/467 466/519/466 487/544/487 488/547/488
f 460/523/460 459/520/459 480/545/480 481/548/481
f 475/524/475 474/521/474 495/546/495 496/549/496
f 468/525/468 467/522/467 488/547/488 489/550/489
f 461/526/461 460/523/460 481/548/481 482/528/482
f 476/527/476 475/524/475 496/549/496 497/530/497
f 469/505/469 468/525/468 489/550/489 490/532/490
f 490/532/490 489/550/489 510/551/510 511/552/511
f 483/529/483 482/528/482 503/553/503 504/554/504
f 498/531/498 497/530/497 518/555/518 519/556/519
f 491/533/491 490/532/490 511/552/511 512/557/512
f 484/534/484 483/529/483 504/554/504 505/558/505
f 183/559/183 498/531/498 519/556/519
f 492/536/492 491/533/491 512/557/512 513/560/513
f 485/537/485 484/534/484 505/558/505 506/561/506
f 478/539/478 119/562/119 499/563/499
f 493/540/493 492/536/492 513/560/513 514/564/514
f 486/541/486 485/537/485 506/561/506 507/565/507
f 479/542/479 478/539/478 499/563/499 500/566/500
f 494/543/494 493/540/493 514/564/514 515/567/515
f 487/544/487 486/541/486 507/565/507 508/568/508
f 480/545/480 479/542/479 500/566/500 501/569/501
f 495/546/495 494/543/494 515/567/515 516/570/516
f 488/547/488 487/544/487 508/568/508 509/571/509
f 481/548/481 480/545/480 501/569/501 502/572/502
f 496/549/496 495/546/495 516/570/516 517/573/517
f 489/550/489 488/547/488 509/571/509 510/551/510
f 482/528/482 481/548/481 502/572/502 503/553/503
f 497/530/497 496/549/496 517/573/517 518/555/518
f 503/553/503 502/572/502 523/574/523 524/575/524
f 518/555/518 517/573/517 538/576/538 539/577/539
f 511/552/511 510/551/510 531/578/531 532/579/532
f 504/554/504 503/553/503 524/575/524 525/580/525
f 519/556/519 518/555/518 539/577/539 540/581/540
f 512/557/512 511/552/511 532/579/532 533/582/533
f 505/558/505 504/554/504 525/580/525 526/583/526
f 183/584/183 519/556/519 540/581/540
f 513/560/513 512/557/512 533/582/533 534/585/534
f 506/561/506 505/558/505 526/583/526 527/586/527
f 499/563/499 119/587/119 520/588/520
f 514/564/514 513/560/513 534/585/534 535/589/535
f 507/565/507 506/561/506 527/586/527 528/590/528
f 500/566/500 499/563/499 520/588/520 521/591/521
f 515/567/515 514/564/514 535/589/535 536/592/536
f 508/568/508 507/565/507 528/590/528 529/593/529
f 501/569/501 500/566/500 521/591/521 522/594/522
f 516/570/516 515/567/515 536/592/536 537/595/537
f 509/571/509 508/568/508 529/593/529 530/596/530
f 502/572/502 501/569/501 522/594/522 523/574/523
f 517/573/517 516/570/516 537/595/537 538/576/538
f 510/551/510 509/571/509 530/596/530 531/578/531
f 538/576/538 537/595/537 558/597/558 559/598/559
f 531/578/531 530/596/530 551/599/551 552/600/552
f 524/575/524 523/574/523 544/601/544 545/602/545
f 539/577/539 538/576/538 559/598/559 560/603/560
f 532/579/532 531/578/531 552/600/552 553/604/553
f 525/580/525 524/575/524 545/602/545 546/605/546
f 540/581/540 539/577/539 560/603/560 561/606/561
f 533/582/533 532/579/532 553/604/553 554/607/554
f 526/583/526 525/580/525 546/605/546 547/608/547
f 183/609/183 540/581/540 561/606/561
f 534/585/534 533/582/533 554/607/554 555/610/555
f 527/586/527 526/583/526 547/608/547 548/611/548
f 520/588/520 119/612/119 541/613/541
f 535/589/535 534/585/534 555/610/555 556/614/556
f 528/590/528 527/586/527 548/611/548 549/615/549
f 521/591/521 520/588/520 541/613/541 542/616/542
f 536/592/536 535/589/535 556/614/556 557/617/557
f 529/593/529 528/590/528 549/615/549 550/618/550
f 522/594/522 521/591/521 542/616/542 543/619/543
f 537/595/537 536/592/536 557/617/557 558/597/558
f 530/596/530 529/593/529 550/618/550 551/599/551
f 523/574/523 522/594/522 543/619/543 544/601/544
f 551/599/551 550/618/550 571/620/571 572/621/572
f 544/601/544 543/619/543 564/622/564 565/623/565
f 559/598/559 558/597/558 579/624/579 580/625/580
f 552/600/552 551/599/551 572/621/572 573/626/573
f 545/602/545 544/601/544 565/623/565 566/627/566
f 560/603/560 559/598/559 580/625/580 581/628/581
f 553/604/553 552/600/552 573/626/573 574/629/574
f 546/605/546 545/602/545 566/627/566 567/630/567
f 561/606/561 560/603/560 581/628/581 582/631/582
f 554/607/554 553/604/553 574/629/574 575/632/575
f 547/608/547 546/605/546 567/630/567 568/633/568
f 183/634/183 561/606/561 582/631/582
f 555/610/555 554/607/554 575/632/575 576/635/576
f 548/611/548 547/608/547 568/633/568 569/636/569
f 541/613/541 119/637/119 562/638/562
f 556/614/556 555/610/555 576/635/576 577/639/577
f 549/615/549 548/611/548 569/636/569 570/640/570
f 542/616/542 541/613/541 562/638/562 563/641/563
f 557/617/557 556/614/556 577/639/577 578/642/578
f 550/618/550 549/615/549 570/640/570 571/620/571
f 543/619/543 542/616/542 563/641/563 564/622/564
f 558/597/558 557/617/557 578/642/578 579/624/579
f 564/643/564 563/644/563 584/645/584 585/646/585
f 579/647/579 578/648/578 599/649/599 600/650/600
f 572/651/572 571/652/571 592/653/592 593/654/593
f 565/655/565 564/643/564 585/646/585 586/656/586
f 580/657/580 579/647/579 600/650/600 601/658/601
f 573/659/573 572/651/572 593/654/593 594/660/594
f 566/661/566 565/655/565 586/656/586 587/662/587
f 581/663/581 580/657/580 601/658/601 602/664/602
f 574/665/574 573/659/573 594/660/594 595/666/595
f 567/667/567 566/661/566 587/662/587 588/668/588
f 582/669/582 581/663/581 602/664/602 603/670/603
f 575/671/575 574/665/574 595/666/595 596/672/596
f 568/673/568 567/667/567 588/668/588 589/674/589
f 183/675/183 582/669/582 603/670/603
f 576/676/576 575/671/575 596/672/596 597/677/597
f 569/678/569 568/673/568 589/674/589 590/679/590
f 562/680/562 119/681/119 583/682/583
f 577/683/577 576/676/576 597/677/597 598/684/598
f 570/685/570 569/678/569 590/679/590 591/686/591
f 563/644/563 562/680/562 583/682/583 584/645/584
f 578/648/578 577/683/577 598/684/598 599/649/599
f 571/652/571 570/685/570 591/686/591 592/653/592
f 592/653/592 591/686/591 612/687/612 613/688/613
f 585/646/585 584/645/584 605/689/605 606/690/606
f 600/650/600 599/649/599 620/691/620 621/692/621
f 593/654/593 592/653/592 613/688/613 614/693/614
f 586/656/586 585/646/585 606/690/606 607/694/607
f 601/658/601 600/650/600 621/692/621 622/695/622
f 594/660/594 593/654/593 614/693/614 615/696/615
f 587/662/587 586/656/586 607/694/607 608/697/608
f 602/664/602 601/658/601 622/695/622 623/698/623
f 595/666/595 594/660/594 615/696/615 616/699/616
f 588/668/588 587/662/587 608/697/608 609/700/609
f 603/670/603 602/664/602 623/698/623 624/701/624
f 596/672/596 595/666/595 616/699/616 617/702/617
f 589/674/589 588/668/588 609/700/609 610/703/610
f 183/704/183 603/670/603 624/701/624
f 597/677/597 596/672/596 617/702/617 618/705/618
f 590/679/590 589/674/589 610/703/610 611/706/611
f 583/682/583 119/707/119 604/708/604
f 598/684/598 597/677/597 618/705/618 619/709/619
f 591/686/591 590/679/590 611/706/611 612/687/612
f 584/645/584 583/682/583 604/708/604 605/689/605
f 599/649/599 598/684/598 619/709/619 620/691/620
f 605/689/605 604/708/604 625/710/625 626/711/626
f 620/691/620 619/709/619 640/712/640 641/713/641
f 613/688/613 612/687/612 633/714/633 634/715/634
f 606/690/606 605/689/605 626/711/626 627/716/627
f 621/692/621 620/691/620 641/713/641 642/717/642
f 614/693/614 613/688/613 634/715/634 635/718/635
f 607/694/607 606/690/606 627/716/627 628/719/628
f 622/695/622 621/692/621 642/717/642 643/720/643
f 615/696/615 614/693/614 635/718/635 636/721/636
f 608/697/608 607/694/607 628/719/628 629/722/629
f 623/698/623 622/695/622 643/720/643 644/723/644
f 616/699/616 615/696/615 636/721/636 637/724/637
f 609/700/609 608/697/608 629/722/629 630/725/630
f 624/701/624 623/698/623 644/723/644 645/726/645
f 617/702/617 616/699/616 637/724/637 638/727/638
f 610/703/610 609/700/609 630/725/630 631/728/631
f 183/729/183 624/701/624 645/726/645
f 618/705/618 617/702/617 638/727/638 639/730/639
f 611/706/611 610/703/610 631/728/631 632/731/632
f 604/708/604 119/732/119 625/710/625
f 619/709/619 618/705/618 639/730/639 640/712/640
f 612/687/612 611/706/611 632/731/632 633/714/633
f 640/712/640 639/730/639 660/733/660 661/734/661
f 633/714/633 632/731/632 653/735/653 654/736/654
f 626/711/626 625/710/625 646/737/646 647/738/647
f 641/713/641 640/712/640 661/734/661 662/739/662
f 634/715/634 633/714/633 654/736/654 655/740/655
f 627/716/627 626/711/626 647/738/647 648/741/648
f 642/717/642 641/713/641 662/739/662 663/742/663
f 635/718/635 634/715/634 655/740/655 656/743/656
f 628/719/628 627/716/627 648/741/648 649/744/649
f 643/720/643 642/717/642 663/742/663 664/745/664
f 636/721/636 635/718/635 656/743/656 657/746/657
f 629/722/629 628/719/628 649/744/649 650/747/650
f 644/723/644 643/720/643 664/745/664 665/748/665
f 637/724/637 636/721/636 657/746/657 658/749/658
f 630/725/630 629/722/629 650/747/650 651/750/651
f 645/726/645 644/723/644 665/748/665 666/751/666
f 638/727/638 637/724/637 658/749/658 659/752/659
f 631/728/631 630/725/630 651/750/651 652/753/652
f 183/754/183 645/726/645 666/751/666
f 639/730/639 638/727/638 659/752/659 660/733/660
f 632/731/632 631/728/631 652/753/652 653/735/653
f 625/710/625 119/755/119 646/737/646
f 653/735/653 652/753/652 673/756/673 674/757/674
f 646/737/646 119/758/119 667/759/667
f 661/734/661 660/733/660 681/760/681 682/761/682
f 654/736/654 653/735/653 674/757/674 675/762/675
f 647/738/647 646/737/646 667/759/667 668/763/668
f 662/739/662 661/734/661 682/761/682 683/764/683
f 655/740/655 654/736/654 675/762/675 676/765/676
f 648/741/648 647/738/647 668/763/668 669/766/669
f 663/742/663 662/739/662 683/764/683 684/767/684
f 656/743/656 655/740/655 676/765/676 677/768/677
f 649/744/649 648/741/648 669/766/669 670/769/670
f 664/745/664 663/742/663 684/767/684 685/770/685
f 657/746/657 656/743/656 677/768/677 678/771/678
f 650/747/650 649/744/649 670/769/670 671/772/671
f 665/748/665 664/745/664 685/770/685 686/773/686
f 658/749/658 657/746/657 678/771/678 679/774/679
f 651/750/651 650/747/650 671/772/671 672/775/672
f 666/751/666 665/748/665 686/773/686 687/776/687
f 659/752/659 658/749/658 679/774/679 680/777/680
f 652/753/652 651/750/651 672/775/672 673/756/673
f 183/778/183 666/751/666 687/776/687
f 660/733/660 659/752/659 680/777/680 681/760/681
f 681/760/681 680/777/680 701/779/701 702/780/702
f 674/757/674 673/756/673 694/781/694 695/782/695
f 667/759/667 119/783/119 688/784/688
f 682/761/682 681/760/681 702/780/702 703/785/703
f 675/762/675 674/757/674 695/782/695 696/786/696
f 668/763/668 667/759/667 688/784/688 689/787/689
f 683/764/683 682/761/682 703/785/703 704/788/704
f 676/765/676 675/762/675 696/786/696 697/789/697
f 669/766/669 668/763/668 689/787/689 690/790/690
f 684/767/684 683/764/683 704/788/704 705/791/705
f 677/768/677 676/765/676 697/789/697 698/792/698
f 670/769/670 669/766/669 690/790/690 691/793/691
f 685/770/685 684/767/684 705/791/705 706/794/706
f 678/771/678 677/768/677 698/792/698 699/795/699
f 671/772/671 670/769/670 691/793/691 692/796/692
f 686/773/686 685/770/685 706/794/706 707/797/707
f 679/774/679 678/771/678 699/795/699 700/798/700
f 672/775/672 671/772/671 692/796/692 693/799/693
f 687/776/687 686/773/686 707/797/707 708/800/708
f 680/777/680 679/774/679 700/798/700 701/779/701
f 673/756/673 672/775/672 693/799/693 694/781/694
f 183/801/183 687/776/687 708/800/708
f 694/781/694 693/799/693 714/802/714 715/803/715
f 183/804/183 708/800/708 729/805/729
f 702/780/702 701/779/701 722/806/722 723/807/723
f 695/782/695 694/781/694 715/803/715 716/808/716
f 688/784/688 119/809/119 709/810/709
f 703/785/703 702/780/702 723/807/723 724/811/724
f 696/786/696 695/782/695 716/808/716 717/812/717
f 689/787/689 688/784/688 709/810/709 710/813/710
f 704/788/704 703/785/703 724/811/724 725/814/725
f 697/789/697 696/786/696 717/812/717 718/815/718
f 690/790/690 689/787/689 710/813/710 711/816/711
f 705/791/705 704/788/704 725/814/725 726/817/726
f 698/792/698 697/789/697 718/815/718 719/818/719
f 691/793/691 690/790/690 711/816/711 712/819/712
f 706/794/706 705/791/705 726/817/726 727/820/727
f 699/795/699 698/792/698 719/818/719 720/821/720
f 692/796/692 691/793/691 712/819/712 713/822/713
f 707/797/707 706/794/706 727/820/727 728/823/728
f 700/798/700 699/795/699 720/821/720 721/824/721
f 693/799/693 692/796/692 713/822/713 714/802/714
f 708/800/708 707/797/707 728/823/728 729/805/729
f 701/779/701 700/798/700 721/824/721 722/806/722
f 729/805/729 728/823/728 749/825/749 750/826/750
f 722/806/722 721/824/721 742/827/742 743/828/743
f 715/803/715 714/802/714 735/829/735 736/830/736
f 183/831/183 729/805/729 750/826/750
f 723/807/723 722/806/722 743/828/743 744/832/744
f 716/808/716 715/803/715 736/830/736 737/833/737
f 709/810/709 119/834/119 730/835/730
f 724/811/724 723/807/723 744/832/744 745/836/745
f 717/812/717 716/808/716 737/833/737 738/837/738
f 710/813/710 709/810/709 730/835/730 731/838/731
f 725/814/725 724/811/724 745/836/745 746/839/746
f 718/815/718 717/812/717 738/837/738 739/840/739
f 711/816/711 710/813/710 731/838/731 732/841/732
f 726/817/726 725/814/725 746/839/746 747/842/747
f 719/818/719 718/815/718 739/840/739 740/843/740
f 712/819/712 711/816/711 732/841/732 733/844/733
f 727/820/727 726/817/726 747/842/747 748/845/748
f 720/821/720 719/818/719 740/843/740 741/846/741
f 713/822/713 712/819/712 733/844/733 734/847/734
f 728/823/728 727/820/727 748/845/748 749/825/749
f 721/824/721 720/821/720 741/846/741 742/827/742
f 714/802/714 713/822/713 734/847/734 735/829/735
f 742/827/742 741/846/741 9/13/9 10/19/10
f 735/829/735 734/847/734 751/15/751 752/21/752
f 750/826/750 749/825/749 757/17/757 758/23/758
f 743/828/743 742/827/742 10/19/10 11/25/11
f 736/830/736 735/829/735 752/21/752 5/27/5
f 183/848/183 750/826/750 758/23/758
f 744/832/744 743/828/743 11/25/11 754/30/754
f 737/833/737 736/830/736 5/27/5 753/32/753
f 730/835/730 119/849/119 1/34/1
f 745/836/745 744/832/744 754/30/754 755/37/755
f 738/837/738 737/833/737 753/32/753 6/39/6
f 731/838/731 730/835/730 1/34/1 2/41/2
f 746/839/746 745/836/745 755/37/755 756/43/756
f 739/840/739 738/837/738 6/39/6 7/2/7
f 732/841/732 731/838/731 2/41/2 3/6/3
f 747/842/747 746/839/746 756/43/756 12/10/12
f 740/843/740 739/840/739 7/2/7 8/1/8
f 733/844/733 732/841/732 3/6/3 4/5/4
f 748/845/748 747/842/747 12/10/12 13/9/13
f 741/846/741 740/843/740 8/1/8 9/13/9
f 734/847/734 733/844/733 4/5/4 751/15/751
f 749/825/749 748/845/748 13/9/13 757/17/757
