# Blender 4.3.2
# www.blender.org
mtllib spike.mtl
o Cube
v 2.388149 2.388149 -2.388149
v 2.388149 -2.388149 -2.388149
v 2.388149 2.388149 2.388149
v 2.388149 -2.388149 2.388149
v -2.388149 2.388149 -2.388149
v -2.388149 -2.388149 -2.388149
v -2.388149 2.388149 2.388149
v -2.388149 -2.388149 2.388149
v -1.000000 -1.000000 -0.500000
v -2.436331 -2.436331 0.000000
v -1.000000 -1.000000 0.500000
v 0.500000 -1.000000 -1.000000
v 0.000000 -2.436331 -2.436331
v -0.500000 -1.000000 -1.000000
v 1.000000 0.500000 -1.000000
v 2.436331 0.000000 -2.436331
v 1.000000 -0.500000 -1.000000
v -1.000000 -0.500000 1.000000
v -2.436331 0.000000 2.436331
v -1.000000 0.500000 1.000000
v 1.000000 0.500000 1.000000
v 2.436331 0.000000 2.436331
v 1.000000 -0.500000 1.000000
v -1.000000 0.500000 -1.000000
v -2.436331 0.000000 -2.436331
v -1.000000 -0.500000 -1.000000
v 0.500000 1.000000 1.000000
v 0.000000 2.436331 2.436331
v -0.500000 1.000000 1.000000
v 1.000000 1.000000 -0.500000
v 2.436331 2.436331 0.000000
v 1.000000 1.000000 0.500000
v -0.500000 -1.000000 1.000000
v 0.000000 -2.436331 2.436331
v 0.500000 -1.000000 1.000000
v -1.000000 1.000000 0.500000
v -2.436331 2.436331 0.000000
v -1.000000 1.000000 -0.500000
v -0.500000 1.000000 -1.000000
v 0.000000 2.436331 -2.436331
v 0.500000 1.000000 -1.000000
v 1.000000 -1.000000 0.500000
v 2.436331 -2.436331 0.000000
v 1.000000 -1.000000 -0.500000
v 0.500000 1.000000 -0.500000
v 0.000000 1.000000 -0.500000
v -0.500000 1.000000 -0.500000
v 0.500000 1.000000 -0.000000
v 0.000000 3.073579 0.000000
v -0.500000 1.000000 0.000000
v 0.500000 1.000000 0.500000
v 0.000000 1.000000 0.500000
v -0.500000 1.000000 0.500000
v 0.500000 -0.500000 1.000000
v 0.500000 0.000000 1.000000
v 0.500000 0.500000 1.000000
v 0.000000 -0.500000 1.000000
v 0.000000 0.000000 3.073579
v 0.000000 0.500000 1.000000
v -0.500000 -0.500000 1.000000
v -0.500000 0.000000 1.000000
v -0.500000 0.500000 1.000000
v -1.000000 -0.500000 0.500000
v -1.000000 0.000000 0.500000
v -1.000000 0.500000 0.500000
v -1.000000 -0.500000 0.000000
v -3.073579 0.000000 0.000000
v -1.000000 0.500000 0.000000
v -1.000000 -0.500000 -0.500000
v -1.000000 0.000000 -0.500000
v -1.000000 0.500000 -0.500000
v -0.500000 -1.000000 -0.500000
v 0.000000 -1.000000 -0.500000
v 0.500000 -1.000000 -0.500000
v -0.500000 -1.000000 -0.000000
v 0.000000 -3.073579 0.000000
v 0.500000 -1.000000 0.000000
v -0.500000 -1.000000 0.500000
v 0.000000 -1.000000 0.500000
v 0.500000 -1.000000 0.500000
v 1.000000 -0.500000 -0.500000
v 1.000000 0.000000 -0.500000
v 1.000000 0.500000 -0.500000
v 1.000000 -0.500000 -0.000000
v 3.073579 0.000000 0.000000
v 1.000000 0.500000 0.000000
v 1.000000 -0.500000 0.500000
v 1.000000 0.000000 0.500000
v 1.000000 0.500000 0.500000
v -0.500000 -0.500000 -1.000000
v -0.500000 0.000000 -1.000000
v -0.500000 0.500000 -1.000000
v -0.000000 -0.500000 -1.000000
v 0.000000 0.000000 -3.073579
v 0.000000 0.500000 -1.000000
v 0.500000 -0.500000 -1.000000
v 0.500000 0.000000 -1.000000
v 0.500000 0.500000 -1.000000
vn 0.6693 0.3228 -0.6693
vn -0.6693 0.3228 -0.6693
vn 0.6693 0.3228 0.6693
vn -0.6693 0.3228 0.6693
vn -0.3262 0.8873 0.3262
vn 0.4528 0.7681 0.4528
vn -0.4528 0.7681 0.4528
vn 0.3262 0.8873 0.3262
vn 0.4528 0.7681 -0.4528
vn 0.3262 0.8873 -0.3262
vn -0.4528 0.7681 -0.4528
vn -0.3262 0.8873 -0.3262
vn 0.6693 -0.6693 0.3228
vn 0.6693 0.6693 0.3228
vn -0.6693 -0.6693 0.3228
vn -0.6693 0.6693 0.3228
vn -0.3262 0.3262 0.8873
vn -0.4528 -0.4528 0.7681
vn -0.4528 0.4528 0.7681
vn -0.3262 -0.3262 0.8873
vn 0.4528 -0.4528 0.7681
vn 0.3262 -0.3262 0.8873
vn 0.4528 0.4528 0.7681
vn 0.3262 0.3262 0.8873
vn -0.3228 -0.6693 0.6693
vn -0.3228 0.6693 0.6693
vn -0.3228 -0.6693 -0.6693
vn -0.3228 0.6693 -0.6693
vn -0.8873 0.3262 -0.3262
vn -0.7681 -0.4528 -0.4528
vn -0.7681 0.4528 -0.4528
vn -0.8873 -0.3262 -0.3262
vn -0.7681 -0.4528 0.4528
vn -0.8873 -0.3262 0.3262
vn -0.7681 0.4528 0.4528
vn -0.8873 0.3262 0.3262
vn -0.6693 -0.3228 -0.6693
vn 0.6693 -0.3228 -0.6693
vn -0.6693 -0.3228 0.6693
vn 0.6693 -0.3228 0.6693
vn 0.3262 -0.8873 0.3262
vn -0.4528 -0.7681 0.4528
vn 0.4528 -0.7681 0.4528
vn -0.3262 -0.8873 0.3262
vn -0.4528 -0.7681 -0.4528
vn -0.3262 -0.8873 -0.3262
vn 0.4528 -0.7681 -0.4528
vn 0.3262 -0.8873 -0.3262
vn 0.3228 -0.6693 -0.6693
vn 0.3228 0.6693 -0.6693
vn 0.3228 -0.6693 0.6693
vn 0.3228 0.6693 0.6693
vn 0.8873 0.3262 0.3262
vn 0.7681 -0.4528 0.4528
vn 0.7681 0.4528 0.4528
vn 0.8873 -0.3262 0.3262
vn 0.7681 -0.4528 -0.4528
vn 0.8873 -0.3262 -0.3262
vn 0.7681 0.4528 -0.4528
vn 0.8873 0.3262 -0.3262
vn -0.6693 -0.6693 -0.3228
vn -0.6693 0.6693 -0.3228
vn 0.6693 -0.6693 -0.3228
vn 0.6693 0.6693 -0.3228
vn 0.3262 0.3262 -0.8873
vn 0.4528 -0.4528 -0.7681
vn 0.4528 0.4528 -0.7681
vn 0.3262 -0.3262 -0.8873
vn -0.4528 -0.4528 -0.7681
vn -0.3262 -0.3262 -0.8873
vn -0.4528 0.4528 -0.7681
vn -0.3262 0.3262 -0.8873
vt 0.687500 0.562500
vt 0.750000 0.562500
vt 0.750000 0.625000
vt 0.687500 0.625000
vt 0.812500 0.562500
vt 0.812500 0.625000
vt 0.750000 0.687500
vt 0.687500 0.687500
vt 0.812500 0.687500
vt 0.625000 0.500000
vt 0.687500 0.500000
vt 0.625000 0.562500
vt 0.750000 0.500000
vt 0.812500 0.500000
vt 0.875000 0.500000
vt 0.875000 0.562500
vt 0.875000 0.625000
vt 0.875000 0.687500
vt 0.875000 0.750000
vt 0.812500 0.750000
vt 0.750000 0.750000
vt 0.687500 0.750000
vt 0.625000 0.687500
vt 0.625000 0.750000
vt 0.625000 0.625000
vt 0.437500 0.812500
vt 0.500000 0.812500
vt 0.500000 0.875000
vt 0.437500 0.875000
vt 0.562500 0.812500
vt 0.562500 0.875000
vt 0.500000 0.937500
vt 0.437500 0.937500
vt 0.562500 0.937500
vt 0.375000 0.750000
vt 0.437500 0.750000
vt 0.375000 0.812500
vt 0.500000 0.750000
vt 0.562500 0.750000
vt 0.625000 0.812500
vt 0.625000 0.875000
vt 0.625000 0.937500
vt 0.625000 1.000000
vt 0.562500 1.000000
vt 0.500000 1.000000
vt 0.437500 1.000000
vt 0.375000 0.937500
vt 0.375000 1.000000
vt 0.375000 0.875000
vt 0.437500 0.062500
vt 0.500000 0.062500
vt 0.500000 0.125000
vt 0.437500 0.125000
vt 0.562500 0.062500
vt 0.562500 0.125000
vt 0.500000 0.187500
vt 0.437500 0.187500
vt 0.562500 0.187500
vt 0.375000 0.000000
vt 0.437500 0.000000
vt 0.375000 0.062500
vt 0.500000 0.000000
vt 0.562500 0.000000
vt 0.625000 0.000000
vt 0.625000 0.062500
vt 0.625000 0.125000
vt 0.625000 0.187500
vt 0.625000 0.250000
vt 0.562500 0.250000
vt 0.500000 0.250000
vt 0.437500 0.250000
vt 0.375000 0.187500
vt 0.375000 0.250000
vt 0.375000 0.125000
vt 0.187500 0.562500
vt 0.250000 0.562500
vt 0.250000 0.625000
vt 0.187500 0.625000
vt 0.312500 0.562500
vt 0.312500 0.625000
vt 0.250000 0.687500
vt 0.187500 0.687500
vt 0.312500 0.687500
vt 0.125000 0.500000
vt 0.187500 0.500000
vt 0.125000 0.562500
vt 0.250000 0.500000
vt 0.312500 0.500000
vt 0.375000 0.500000
vt 0.375000 0.562500
vt 0.375000 0.625000
vt 0.375000 0.687500
vt 0.312500 0.750000
vt 0.250000 0.750000
vt 0.187500 0.750000
vt 0.125000 0.687500
vt 0.125000 0.750000
vt 0.125000 0.625000
vt 0.437500 0.562500
vt 0.500000 0.562500
vt 0.500000 0.625000
vt 0.437500 0.625000
vt 0.562500 0.562500
vt 0.562500 0.625000
vt 0.500000 0.687500
vt 0.437500 0.687500
vt 0.562500 0.687500
vt 0.437500 0.500000
vt 0.500000 0.500000
vt 0.562500 0.500000
vt 0.437500 0.312500
vt 0.500000 0.312500
vt 0.500000 0.375000
vt 0.437500 0.375000
vt 0.562500 0.312500
vt 0.562500 0.375000
vt 0.500000 0.437500
vt 0.437500 0.437500
vt 0.562500 0.437500
vt 0.375000 0.312500
vt 0.625000 0.312500
vt 0.625000 0.375000
vt 0.625000 0.437500
vt 0.375000 0.437500
vt 0.375000 0.375000
s 0
usemtl Material
f 45/1/1 46/2/1 49/3/1 48/4/1
f 46/2/2 47/5/2 50/6/2 49/3/2
f 48/4/3 49/3/3 52/7/3 51/8/3
f 49/3/4 50/6/4 53/9/4 52/7/4
f 1/10/5 41/11/5 45/1/5 30/12/5
f 41/11/6 40/13/6 46/2/6 45/1/6
f 40/13/7 39/14/7 47/5/7 46/2/7
f 39/14/8 5/15/8 38/16/8 47/5/8
f 47/5/9 38/16/9 37/17/9 50/6/9
f 50/6/6 37/17/6 36/18/6 53/9/6
f 53/9/10 36/18/10 7/19/10 29/20/10
f 52/7/11 53/9/11 29/20/11 28/21/11
f 51/8/9 52/7/9 28/21/9 27/22/9
f 32/23/12 51/8/12 27/22/12 3/24/12
f 31/25/7 48/4/7 51/8/7 32/23/7
f 30/12/11 45/1/11 48/4/11 31/25/11
f 54/26/13 55/27/13 58/28/13 57/29/13
f 55/27/14 56/30/14 59/31/14 58/28/14
f 57/29/15 58/28/15 61/32/15 60/33/15
f 58/28/16 59/31/16 62/34/16 61/32/16
f 4/35/17 23/36/17 54/26/17 35/37/17
f 23/36/18 22/38/18 55/27/18 54/26/18
f 22/38/19 21/39/19 56/30/19 55/27/19
f 21/39/20 3/24/20 27/40/20 56/30/20
f 56/30/21 27/40/21 28/41/21 59/31/21
f 59/31/18 28/41/18 29/42/18 62/34/18
f 62/34/22 29/42/22 7/43/22 20/44/22
f 61/32/23 62/34/23 20/44/23 19/45/23
f 60/33/21 61/32/21 19/45/21 18/46/21
f 33/47/24 60/33/24 18/46/24 8/48/24
f 34/49/19 57/29/19 60/33/19 33/47/19
f 35/37/23 54/26/23 57/29/23 34/49/23
f 63/50/25 64/51/25 67/52/25 66/53/25
f 64/51/26 65/54/26 68/55/26 67/52/26
f 66/53/27 67/52/27 70/56/27 69/57/27
f 67/52/28 68/55/28 71/58/28 70/56/28
f 8/59/29 18/60/29 63/50/29 11/61/29
f 18/60/30 19/62/30 64/51/30 63/50/30
f 19/62/31 20/63/31 65/54/31 64/51/31
f 20/63/32 7/64/32 36/65/32 65/54/32
f 65/54/33 36/65/33 37/66/33 68/55/33
f 68/55/30 37/66/30 38/67/30 71/58/30
f 71/58/34 38/67/34 5/68/34 24/69/34
f 70/56/35 71/58/35 24/69/35 25/70/35
f 69/57/33 70/56/33 25/70/33 26/71/33
f 9/72/36 69/57/36 26/71/36 6/73/36
f 10/74/31 66/53/31 69/57/31 9/72/31
f 11/61/35 63/50/35 66/53/35 10/74/35
f 72/75/37 73/76/37 76/77/37 75/78/37
f 73/76/38 74/79/38 77/80/38 76/77/38
f 75/78/39 76/77/39 79/81/39 78/82/39
f 76/77/40 77/80/40 80/83/40 79/81/40
f 6/84/41 14/85/41 72/75/41 9/86/41
f 14/85/42 13/87/42 73/76/42 72/75/42
f 13/87/43 12/88/43 74/79/43 73/76/43
f 12/88/44 2/89/44 44/90/44 74/79/44
f 74/79/45 44/90/45 43/91/45 77/80/45
f 77/80/42 43/91/42 42/92/42 80/83/42
f 80/83/46 42/92/46 4/35/46 35/93/46
f 79/81/47 80/83/47 35/93/47 34/94/47
f 78/82/45 79/81/45 34/94/45 33/95/45
f 11/96/48 78/82/48 33/95/48 8/97/48
f 10/98/43 75/78/43 78/82/43 11/96/43
f 9/86/47 72/75/47 75/78/47 10/98/47
f 81/99/49 82/100/49 85/101/49 84/102/49
f 82/100/50 83/103/50 86/104/50 85/101/50
f 84/102/51 85/101/51 88/105/51 87/106/51
f 85/101/52 86/104/52 89/107/52 88/105/52
f 2/89/53 17/108/53 81/99/53 44/90/53
f 17/108/54 16/109/54 82/100/54 81/99/54
f 16/109/55 15/110/55 83/103/55 82/100/55
f 15/110/56 1/10/56 30/12/56 83/103/56
f 83/103/57 30/12/57 31/25/57 86/104/57
f 86/104/54 31/25/54 32/23/54 89/107/54
f 89/107/58 32/23/58 3/24/58 21/39/58
f 88/105/59 89/107/59 21/39/59 22/38/59
f 87/106/57 88/105/57 22/38/57 23/36/57
f 42/92/60 87/106/60 23/36/60 4/35/60
f 43/91/55 84/102/55 87/106/55 42/92/55
f 44/90/59 81/99/59 84/102/59 43/91/59
f 90/111/61 91/112/61 94/113/61 93/114/61
f 91/112/62 92/115/62 95/116/62 94/113/62
f 93/114/63 94/113/63 97/117/63 96/118/63
f 94/113/64 95/116/64 98/119/64 97/117/64
f 6/73/65 26/71/65 90/111/65 14/120/65
f 26/71/66 25/70/66 91/112/66 90/111/66
f 25/70/67 24/69/67 92/115/67 91/112/67
f 24/69/68 5/68/68 39/121/68 92/115/68
f 92/115/69 39/121/69 40/122/69 95/116/69
f 95/116/66 40/122/66 41/123/66 98/119/66
f 98/119/70 41/123/70 1/10/70 15/110/70
f 97/117/71 98/119/71 15/110/71 16/109/71
f 96/118/69 97/117/69 16/109/69 17/108/69
f 12/124/72 96/118/72 17/108/72 2/89/72
f 13/125/67 93/114/67 96/118/67 12/124/67
f 14/120/71 90/111/71 93/114/71 13/125/71
